<mxfile host="65bd71144e">
    <diagram id="KZnJ9WjlSOBFpc1w8O9c" name="Class Diagram">
        <mxGraphModel dx="6407" dy="113" grid="1" gridSize="10" guides="1" tooltips="1" connect="1" arrows="1" fold="1" page="0" pageScale="1" pageWidth="850" pageHeight="1100" math="0" shadow="0">
            <root>
                <mxCell id="0"/>
                <mxCell id="1" parent="0"/>
                <mxCell id="q2HMbp9EWCTCX8sFw67V-1" style="edgeStyle=none;html=1;entryX=1;entryY=0.5;entryDx=0;entryDy=0;endArrow=none;endFill=0;" edge="1" parent="1" target="q2HMbp9EWCTCX8sFw67V-28">
                    <mxGeometry relative="1" as="geometry">
                        <mxPoint x="-3770" y="930" as="sourcePoint"/>
                        <Array as="points"/>
                    </mxGeometry>
                </mxCell>
                <mxCell id="q2HMbp9EWCTCX8sFw67V-2" value="&lt;p style=&quot;margin:0px;margin-top:4px;text-align:center;&quot;&gt;&lt;b&gt;Apprenant&lt;/b&gt;&lt;/p&gt;&lt;hr size=&quot;1&quot;&gt;&lt;p style=&quot;margin:0px;margin-left:4px;&quot;&gt;&lt;br&gt;&lt;/p&gt;" style="verticalAlign=top;align=left;overflow=fill;fontSize=12;fontFamily=Helvetica;html=1;" vertex="1" parent="1">
                    <mxGeometry x="-3840" y="850" width="160" height="80" as="geometry"/>
                </mxCell>
                <mxCell id="q2HMbp9EWCTCX8sFw67V-3" style="edgeStyle=none;html=1;entryX=0.5;entryY=0;entryDx=0;entryDy=0;endArrow=none;endFill=0;" edge="1" parent="1" source="q2HMbp9EWCTCX8sFw67V-4" target="q2HMbp9EWCTCX8sFw67V-25">
                    <mxGeometry relative="1" as="geometry"/>
                </mxCell>
                <mxCell id="q2HMbp9EWCTCX8sFw67V-4" value="&lt;p style=&quot;margin:0px;margin-top:4px;text-align:center;&quot;&gt;&lt;b&gt;Formateur&lt;/b&gt;&lt;/p&gt;" style="verticalAlign=top;align=left;overflow=fill;fontSize=12;fontFamily=Helvetica;html=1;" vertex="1" parent="1">
                    <mxGeometry x="-4140" y="840" width="160" height="90" as="geometry"/>
                </mxCell>
                <mxCell id="q2HMbp9EWCTCX8sFw67V-5" value="*" style="text;align=center;fontStyle=1;verticalAlign=middle;spacingLeft=3;spacingRight=3;strokeColor=none;rotatable=0;points=[[0,0.5],[1,0.5]];portConstraint=eastwest;" vertex="1" parent="1">
                    <mxGeometry x="-4120" y="940" width="80" height="26" as="geometry"/>
                </mxCell>
                <mxCell id="q2HMbp9EWCTCX8sFw67V-6" value="*" style="text;align=center;fontStyle=1;verticalAlign=middle;spacingLeft=3;spacingRight=3;strokeColor=none;rotatable=0;points=[[0,0.5],[1,0.5]];portConstraint=eastwest;" vertex="1" parent="1">
                    <mxGeometry x="-3840" y="942" width="40" height="26" as="geometry"/>
                </mxCell>
                <mxCell id="q2HMbp9EWCTCX8sFw67V-7" value="Quiz" style="swimlane;fontStyle=1;align=center;verticalAlign=top;childLayout=stackLayout;horizontal=1;startSize=26;horizontalStack=0;resizeParent=1;resizeParentMax=0;resizeLast=0;collapsible=1;marginBottom=0;" vertex="1" parent="1">
                    <mxGeometry x="-4800" y="1240" width="160" height="242" as="geometry"/>
                </mxCell>
                <mxCell id="q2HMbp9EWCTCX8sFw67V-8" value="+ id: int&#10;&#10;&#10;&#10;&#10;&#10;&#10;&#10;" style="text;strokeColor=none;fillColor=none;align=left;verticalAlign=top;spacingLeft=4;spacingRight=4;overflow=hidden;rotatable=0;points=[[0,0.5],[1,0.5]];portConstraint=eastwest;" vertex="1" parent="q2HMbp9EWCTCX8sFw67V-7">
                    <mxGeometry y="26" width="160" height="26" as="geometry"/>
                </mxCell>
                <mxCell id="q2HMbp9EWCTCX8sFw67V-9" value="+ titre:string" style="text;strokeColor=none;fillColor=none;align=left;verticalAlign=top;spacingLeft=4;spacingRight=4;overflow=hidden;rotatable=0;points=[[0,0.5],[1,0.5]];portConstraint=eastwest;" vertex="1" parent="q2HMbp9EWCTCX8sFw67V-7">
                    <mxGeometry y="52" width="160" height="26" as="geometry"/>
                </mxCell>
                <mxCell id="q2HMbp9EWCTCX8sFw67V-10" value="+ sujet: string&#10;&#10;&#10;&#10;&#10;" style="text;strokeColor=none;fillColor=none;align=left;verticalAlign=top;spacingLeft=4;spacingRight=4;overflow=hidden;rotatable=0;points=[[0,0.5],[1,0.5]];portConstraint=eastwest;" vertex="1" parent="q2HMbp9EWCTCX8sFw67V-7">
                    <mxGeometry y="78" width="160" height="26" as="geometry"/>
                </mxCell>
                <mxCell id="q2HMbp9EWCTCX8sFw67V-11" value="+ objectif: string&#10;&#10;&#10;&#10;&#10;" style="text;strokeColor=none;fillColor=none;align=left;verticalAlign=top;spacingLeft=4;spacingRight=4;overflow=hidden;rotatable=0;points=[[0,0.5],[1,0.5]];portConstraint=eastwest;" vertex="1" parent="q2HMbp9EWCTCX8sFw67V-7">
                    <mxGeometry y="104" width="160" height="26" as="geometry"/>
                </mxCell>
                <mxCell id="q2HMbp9EWCTCX8sFw67V-12" value="" style="line;strokeWidth=1;fillColor=none;align=left;verticalAlign=middle;spacingTop=-1;spacingLeft=3;spacingRight=3;rotatable=0;labelPosition=right;points=[];portConstraint=eastwest;strokeColor=inherit;" vertex="1" parent="q2HMbp9EWCTCX8sFw67V-7">
                    <mxGeometry y="130" width="160" height="8" as="geometry"/>
                </mxCell>
                <mxCell id="q2HMbp9EWCTCX8sFw67V-13" value="+ AjouterQuiz()" style="text;strokeColor=none;fillColor=none;align=left;verticalAlign=top;spacingLeft=4;spacingRight=4;overflow=hidden;rotatable=0;points=[[0,0.5],[1,0.5]];portConstraint=eastwest;" vertex="1" parent="q2HMbp9EWCTCX8sFw67V-7">
                    <mxGeometry y="138" width="160" height="26" as="geometry"/>
                </mxCell>
                <mxCell id="q2HMbp9EWCTCX8sFw67V-14" value="+ ModifierQuiz()" style="text;strokeColor=none;fillColor=none;align=left;verticalAlign=top;spacingLeft=4;spacingRight=4;overflow=hidden;rotatable=0;points=[[0,0.5],[1,0.5]];portConstraint=eastwest;" vertex="1" parent="q2HMbp9EWCTCX8sFw67V-7">
                    <mxGeometry y="164" width="160" height="26" as="geometry"/>
                </mxCell>
                <mxCell id="q2HMbp9EWCTCX8sFw67V-15" value="+ VoirQuiz()" style="text;strokeColor=none;fillColor=none;align=left;verticalAlign=top;spacingLeft=4;spacingRight=4;overflow=hidden;rotatable=0;points=[[0,0.5],[1,0.5]];portConstraint=eastwest;" vertex="1" parent="q2HMbp9EWCTCX8sFw67V-7">
                    <mxGeometry y="190" width="160" height="26" as="geometry"/>
                </mxCell>
                <mxCell id="q2HMbp9EWCTCX8sFw67V-16" value="+ SuprimerQuiz()" style="text;strokeColor=none;fillColor=none;align=left;verticalAlign=top;spacingLeft=4;spacingRight=4;overflow=hidden;rotatable=0;points=[[0,0.5],[1,0.5]];portConstraint=eastwest;" vertex="1" parent="q2HMbp9EWCTCX8sFw67V-7">
                    <mxGeometry y="216" width="160" height="26" as="geometry"/>
                </mxCell>
                <mxCell id="q2HMbp9EWCTCX8sFw67V-17" value="1" style="text;align=center;fontStyle=1;verticalAlign=middle;spacingLeft=3;spacingRight=3;strokeColor=none;rotatable=0;points=[[0,0.5],[1,0.5]];portConstraint=eastwest;" vertex="1" parent="1">
                    <mxGeometry x="-4650" y="1294" width="50" height="26" as="geometry"/>
                </mxCell>
                <mxCell id="q2HMbp9EWCTCX8sFw67V-18" value="apprendre" style="text;align=center;fontStyle=1;verticalAlign=middle;spacingLeft=3;spacingRight=3;strokeColor=none;rotatable=0;points=[[0,0.5],[1,0.5]];portConstraint=eastwest;flipV=1;flipH=1;" vertex="1" parent="1">
                    <mxGeometry x="-3931" y="1022" width="80" height="26" as="geometry"/>
                </mxCell>
                <mxCell id="q2HMbp9EWCTCX8sFw67V-19" value="enseigner" style="text;align=center;fontStyle=1;verticalAlign=middle;spacingLeft=3;spacingRight=3;strokeColor=none;rotatable=0;points=[[0,0.5],[1,0.5]];portConstraint=eastwest;" vertex="1" parent="1">
                    <mxGeometry x="-4130" y="1024" width="80" height="26" as="geometry"/>
                </mxCell>
                <mxCell id="q2HMbp9EWCTCX8sFw67V-20" style="edgeStyle=none;html=1;startArrow=none;startFill=0;endArrow=none;endFill=0;entryX=0.007;entryY=1.296;entryDx=0;entryDy=0;entryPerimeter=0;" edge="1" parent="1">
                    <mxGeometry relative="1" as="geometry">
                        <mxPoint x="-4483.88" y="1319.696" as="targetPoint"/>
                        <mxPoint x="-4640" y="1320" as="sourcePoint"/>
                    </mxGeometry>
                </mxCell>
                <mxCell id="q2HMbp9EWCTCX8sFw67V-21" value="*" style="text;align=center;fontStyle=1;verticalAlign=middle;spacingLeft=3;spacingRight=3;strokeColor=none;rotatable=0;points=[[0,0.5],[1,0.5]];portConstraint=eastwest;" vertex="1" parent="1">
                    <mxGeometry x="-4100" y="1120" width="50" height="26" as="geometry"/>
                </mxCell>
                <mxCell id="q2HMbp9EWCTCX8sFw67V-22" value="*" style="text;align=center;fontStyle=1;verticalAlign=middle;spacingLeft=3;spacingRight=3;strokeColor=none;rotatable=0;points=[[0,0.5],[1,0.5]];portConstraint=eastwest;" vertex="1" parent="1">
                    <mxGeometry x="-3981" y="1156" width="50" height="26" as="geometry"/>
                </mxCell>
                <mxCell id="q2HMbp9EWCTCX8sFw67V-23" value="*" style="text;align=center;fontStyle=1;verticalAlign=middle;spacingLeft=3;spacingRight=3;strokeColor=none;rotatable=0;points=[[0,0.5],[1,0.5]];portConstraint=eastwest;" vertex="1" parent="1">
                    <mxGeometry x="-4285.5" y="1253" width="45" height="26" as="geometry"/>
                </mxCell>
                <mxCell id="q2HMbp9EWCTCX8sFw67V-24" value="*" style="text;align=center;fontStyle=1;verticalAlign=middle;spacingLeft=3;spacingRight=3;strokeColor=none;rotatable=0;points=[[0,0.5],[1,0.5]];portConstraint=eastwest;" vertex="1" parent="1">
                    <mxGeometry x="-4181" y="1253" width="40" height="26" as="geometry"/>
                </mxCell>
                <mxCell id="q2HMbp9EWCTCX8sFw67V-25" value="Session" style="swimlane;fontStyle=1;align=center;verticalAlign=top;childLayout=stackLayout;horizontal=1;startSize=26;horizontalStack=0;resizeParent=1;resizeParentMax=0;resizeLast=0;collapsible=1;marginBottom=0;" vertex="1" parent="1">
                    <mxGeometry x="-4141" y="1156" width="160" height="268" as="geometry"/>
                </mxCell>
                <mxCell id="q2HMbp9EWCTCX8sFw67V-26" value="+ id: int&#10;" style="text;strokeColor=none;fillColor=none;align=left;verticalAlign=top;spacingLeft=4;spacingRight=4;overflow=hidden;rotatable=0;points=[[0,0.5],[1,0.5]];portConstraint=eastwest;" vertex="1" parent="q2HMbp9EWCTCX8sFw67V-25">
                    <mxGeometry y="26" width="160" height="26" as="geometry"/>
                </mxCell>
                <mxCell id="q2HMbp9EWCTCX8sFw67V-27" value="+ titre: string&#10;" style="text;strokeColor=none;fillColor=none;align=left;verticalAlign=top;spacingLeft=4;spacingRight=4;overflow=hidden;rotatable=0;points=[[0,0.5],[1,0.5]];portConstraint=eastwest;" vertex="1" parent="q2HMbp9EWCTCX8sFw67V-25">
                    <mxGeometry y="52" width="160" height="26" as="geometry"/>
                </mxCell>
                <mxCell id="q2HMbp9EWCTCX8sFw67V-28" value="+ duration: time&#10;" style="text;strokeColor=none;fillColor=none;align=left;verticalAlign=top;spacingLeft=4;spacingRight=4;overflow=hidden;rotatable=0;points=[[0,0.5],[1,0.5]];portConstraint=eastwest;" vertex="1" parent="q2HMbp9EWCTCX8sFw67V-25">
                    <mxGeometry y="78" width="160" height="26" as="geometry"/>
                </mxCell>
                <mxCell id="q2HMbp9EWCTCX8sFw67V-29" value="+ formation_id: formation&#10;" style="text;strokeColor=none;fillColor=none;align=left;verticalAlign=top;spacingLeft=4;spacingRight=4;overflow=hidden;rotatable=0;points=[[0,0.5],[1,0.5]];portConstraint=eastwest;" vertex="1" parent="q2HMbp9EWCTCX8sFw67V-25">
                    <mxGeometry y="104" width="160" height="26" as="geometry"/>
                </mxCell>
                <mxCell id="q2HMbp9EWCTCX8sFw67V-30" value="+ status:boolean" style="text;strokeColor=none;fillColor=none;align=left;verticalAlign=top;spacingLeft=4;spacingRight=4;overflow=hidden;rotatable=0;points=[[0,0.5],[1,0.5]];portConstraint=eastwest;" vertex="1" parent="q2HMbp9EWCTCX8sFw67V-25">
                    <mxGeometry y="130" width="160" height="26" as="geometry"/>
                </mxCell>
                <mxCell id="q2HMbp9EWCTCX8sFw67V-31" value="" style="line;strokeWidth=1;fillColor=none;align=left;verticalAlign=middle;spacingTop=-1;spacingLeft=3;spacingRight=3;rotatable=0;labelPosition=right;points=[];portConstraint=eastwest;strokeColor=inherit;" vertex="1" parent="q2HMbp9EWCTCX8sFw67V-25">
                    <mxGeometry y="156" width="160" height="8" as="geometry"/>
                </mxCell>
                <mxCell id="q2HMbp9EWCTCX8sFw67V-32" value="+ AjouterSession()" style="text;strokeColor=none;fillColor=none;align=left;verticalAlign=top;spacingLeft=4;spacingRight=4;overflow=hidden;rotatable=0;points=[[0,0.5],[1,0.5]];portConstraint=eastwest;" vertex="1" parent="q2HMbp9EWCTCX8sFw67V-25">
                    <mxGeometry y="164" width="160" height="26" as="geometry"/>
                </mxCell>
                <mxCell id="q2HMbp9EWCTCX8sFw67V-33" value="+ ModifierSession()" style="text;strokeColor=none;fillColor=none;align=left;verticalAlign=top;spacingLeft=4;spacingRight=4;overflow=hidden;rotatable=0;points=[[0,0.5],[1,0.5]];portConstraint=eastwest;" vertex="1" parent="q2HMbp9EWCTCX8sFw67V-25">
                    <mxGeometry y="190" width="160" height="26" as="geometry"/>
                </mxCell>
                <mxCell id="q2HMbp9EWCTCX8sFw67V-34" value="+ ArchiverSession()" style="text;strokeColor=none;fillColor=none;align=left;verticalAlign=top;spacingLeft=4;spacingRight=4;overflow=hidden;rotatable=0;points=[[0,0.5],[1,0.5]];portConstraint=eastwest;" vertex="1" parent="q2HMbp9EWCTCX8sFw67V-25">
                    <mxGeometry y="216" width="160" height="26" as="geometry"/>
                </mxCell>
                <mxCell id="q2HMbp9EWCTCX8sFw67V-35" value="+ VoirSession()" style="text;strokeColor=none;fillColor=none;align=left;verticalAlign=top;spacingLeft=4;spacingRight=4;overflow=hidden;rotatable=0;points=[[0,0.5],[1,0.5]];portConstraint=eastwest;" vertex="1" parent="q2HMbp9EWCTCX8sFw67V-25">
                    <mxGeometry y="242" width="160" height="26" as="geometry"/>
                </mxCell>
                <mxCell id="q2HMbp9EWCTCX8sFw67V-36" style="edgeStyle=none;html=1;exitX=1.003;exitY=0.769;exitDx=0;exitDy=0;endArrow=none;endFill=0;exitPerimeter=0;" edge="1" parent="1" source="q2HMbp9EWCTCX8sFw67V-85">
                    <mxGeometry relative="1" as="geometry">
                        <mxPoint x="-4322.76" y="1279.864" as="sourcePoint"/>
                        <mxPoint x="-4140" y="1280" as="targetPoint"/>
                    </mxGeometry>
                </mxCell>
                <mxCell id="q2HMbp9EWCTCX8sFw67V-37" style="edgeStyle=none;html=1;entryX=-0.042;entryY=-0.032;entryDx=0;entryDy=0;endArrow=none;endFill=0;entryPerimeter=0;" edge="1" parent="1" source="q2HMbp9EWCTCX8sFw67V-38" target="q2HMbp9EWCTCX8sFw67V-107">
                    <mxGeometry relative="1" as="geometry">
                        <mxPoint x="-4327" y="1419" as="targetPoint"/>
                    </mxGeometry>
                </mxCell>
                <mxCell id="q2HMbp9EWCTCX8sFw67V-38" value="TypeFormation" style="swimlane;fontStyle=1;align=center;verticalAlign=top;childLayout=stackLayout;horizontal=1;startSize=26;horizontalStack=0;resizeParent=1;resizeParentMax=0;resizeLast=0;collapsible=1;marginBottom=0;" vertex="1" parent="1">
                    <mxGeometry x="-4482.5" y="1680" width="160" height="190" as="geometry"/>
                </mxCell>
                <mxCell id="q2HMbp9EWCTCX8sFw67V-39" value="+ id: int" style="text;strokeColor=none;fillColor=none;align=left;verticalAlign=top;spacingLeft=4;spacingRight=4;overflow=hidden;rotatable=0;points=[[0,0.5],[1,0.5]];portConstraint=eastwest;" vertex="1" parent="q2HMbp9EWCTCX8sFw67V-38">
                    <mxGeometry y="26" width="160" height="26" as="geometry"/>
                </mxCell>
                <mxCell id="q2HMbp9EWCTCX8sFw67V-40" value="+ titre: string" style="text;strokeColor=none;fillColor=none;align=left;verticalAlign=top;spacingLeft=4;spacingRight=4;overflow=hidden;rotatable=0;points=[[0,0.5],[1,0.5]];portConstraint=eastwest;" vertex="1" parent="q2HMbp9EWCTCX8sFw67V-38">
                    <mxGeometry y="52" width="160" height="26" as="geometry"/>
                </mxCell>
                <mxCell id="q2HMbp9EWCTCX8sFw67V-41" value="" style="line;strokeWidth=1;fillColor=none;align=left;verticalAlign=middle;spacingTop=-1;spacingLeft=3;spacingRight=3;rotatable=0;labelPosition=right;points=[];portConstraint=eastwest;strokeColor=inherit;" vertex="1" parent="q2HMbp9EWCTCX8sFw67V-38">
                    <mxGeometry y="78" width="160" height="8" as="geometry"/>
                </mxCell>
                <mxCell id="q2HMbp9EWCTCX8sFw67V-42" value="+ AjoutertypeFormation()" style="text;strokeColor=none;fillColor=none;align=left;verticalAlign=top;spacingLeft=4;spacingRight=4;overflow=hidden;rotatable=0;points=[[0,0.5],[1,0.5]];portConstraint=eastwest;" vertex="1" parent="q2HMbp9EWCTCX8sFw67V-38">
                    <mxGeometry y="86" width="160" height="26" as="geometry"/>
                </mxCell>
                <mxCell id="q2HMbp9EWCTCX8sFw67V-43" value="+ ModifiertypeFormation()" style="text;strokeColor=none;fillColor=none;align=left;verticalAlign=top;spacingLeft=4;spacingRight=4;overflow=hidden;rotatable=0;points=[[0,0.5],[1,0.5]];portConstraint=eastwest;" vertex="1" parent="q2HMbp9EWCTCX8sFw67V-38">
                    <mxGeometry y="112" width="160" height="26" as="geometry"/>
                </mxCell>
                <mxCell id="q2HMbp9EWCTCX8sFw67V-44" value="+ VoirtypeFormation()" style="text;strokeColor=none;fillColor=none;align=left;verticalAlign=top;spacingLeft=4;spacingRight=4;overflow=hidden;rotatable=0;points=[[0,0.5],[1,0.5]];portConstraint=eastwest;" vertex="1" parent="q2HMbp9EWCTCX8sFw67V-38">
                    <mxGeometry y="138" width="160" height="26" as="geometry"/>
                </mxCell>
                <mxCell id="q2HMbp9EWCTCX8sFw67V-45" value="+ AffichertypeFormation()" style="text;strokeColor=none;fillColor=none;align=left;verticalAlign=top;spacingLeft=4;spacingRight=4;overflow=hidden;rotatable=0;points=[[0,0.5],[1,0.5]];portConstraint=eastwest;" vertex="1" parent="q2HMbp9EWCTCX8sFw67V-38">
                    <mxGeometry y="164" width="160" height="26" as="geometry"/>
                </mxCell>
                <mxCell id="q2HMbp9EWCTCX8sFw67V-46" value="1" style="text;html=1;align=center;verticalAlign=middle;resizable=0;points=[];autosize=1;strokeColor=none;fillColor=none;" vertex="1" parent="1">
                    <mxGeometry x="-4400" y="1650" width="30" height="30" as="geometry"/>
                </mxCell>
                <mxCell id="q2HMbp9EWCTCX8sFw67V-47" value="User" style="swimlane;fontStyle=1;align=center;verticalAlign=top;childLayout=stackLayout;horizontal=1;startSize=26;horizontalStack=0;resizeParent=1;resizeParentMax=0;resizeLast=0;collapsible=1;marginBottom=0;" vertex="1" parent="1">
                    <mxGeometry x="-4120" y="470" width="160" height="294" as="geometry"/>
                </mxCell>
                <mxCell id="q2HMbp9EWCTCX8sFw67V-48" value="+ id: int" style="text;strokeColor=none;fillColor=none;align=left;verticalAlign=top;spacingLeft=4;spacingRight=4;overflow=hidden;rotatable=0;points=[[0,0.5],[1,0.5]];portConstraint=eastwest;" vertex="1" parent="q2HMbp9EWCTCX8sFw67V-47">
                    <mxGeometry y="26" width="160" height="26" as="geometry"/>
                </mxCell>
                <mxCell id="q2HMbp9EWCTCX8sFw67V-49" value="+ nom: string" style="text;strokeColor=none;fillColor=none;align=left;verticalAlign=top;spacingLeft=4;spacingRight=4;overflow=hidden;rotatable=0;points=[[0,0.5],[1,0.5]];portConstraint=eastwest;" vertex="1" parent="q2HMbp9EWCTCX8sFw67V-47">
                    <mxGeometry y="52" width="160" height="26" as="geometry"/>
                </mxCell>
                <mxCell id="q2HMbp9EWCTCX8sFw67V-50" value="+ email: string" style="text;strokeColor=none;fillColor=none;align=left;verticalAlign=top;spacingLeft=4;spacingRight=4;overflow=hidden;rotatable=0;points=[[0,0.5],[1,0.5]];portConstraint=eastwest;" vertex="1" parent="q2HMbp9EWCTCX8sFw67V-47">
                    <mxGeometry y="78" width="160" height="26" as="geometry"/>
                </mxCell>
                <mxCell id="q2HMbp9EWCTCX8sFw67V-51" value="+ address: string" style="text;strokeColor=none;fillColor=none;align=left;verticalAlign=top;spacingLeft=4;spacingRight=4;overflow=hidden;rotatable=0;points=[[0,0.5],[1,0.5]];portConstraint=eastwest;" vertex="1" parent="q2HMbp9EWCTCX8sFw67V-47">
                    <mxGeometry y="104" width="160" height="26" as="geometry"/>
                </mxCell>
                <mxCell id="q2HMbp9EWCTCX8sFw67V-52" value="+ profession:string" style="text;strokeColor=none;fillColor=none;align=left;verticalAlign=top;spacingLeft=4;spacingRight=4;overflow=hidden;rotatable=0;points=[[0,0.5],[1,0.5]];portConstraint=eastwest;" vertex="1" parent="q2HMbp9EWCTCX8sFw67V-47">
                    <mxGeometry y="130" width="160" height="26" as="geometry"/>
                </mxCell>
                <mxCell id="q2HMbp9EWCTCX8sFw67V-53" value="+ date_naissance:date" style="text;strokeColor=none;fillColor=none;align=left;verticalAlign=top;spacingLeft=4;spacingRight=4;overflow=hidden;rotatable=0;points=[[0,0.5],[1,0.5]];portConstraint=eastwest;" vertex="1" parent="q2HMbp9EWCTCX8sFw67V-47">
                    <mxGeometry y="156" width="160" height="26" as="geometry"/>
                </mxCell>
                <mxCell id="q2HMbp9EWCTCX8sFw67V-54" value="+ image:string" style="text;strokeColor=none;fillColor=none;align=left;verticalAlign=top;spacingLeft=4;spacingRight=4;overflow=hidden;rotatable=0;points=[[0,0.5],[1,0.5]];portConstraint=eastwest;" vertex="1" parent="q2HMbp9EWCTCX8sFw67V-47">
                    <mxGeometry y="182" width="160" height="26" as="geometry"/>
                </mxCell>
                <mxCell id="q2HMbp9EWCTCX8sFw67V-55" value="+ role_id:role" style="text;strokeColor=none;fillColor=none;align=left;verticalAlign=top;spacingLeft=4;spacingRight=4;overflow=hidden;rotatable=0;points=[[0,0.5],[1,0.5]];portConstraint=eastwest;" vertex="1" parent="q2HMbp9EWCTCX8sFw67V-47">
                    <mxGeometry y="208" width="160" height="26" as="geometry"/>
                </mxCell>
                <mxCell id="q2HMbp9EWCTCX8sFw67V-56" value="" style="line;strokeWidth=1;fillColor=none;align=left;verticalAlign=middle;spacingTop=-1;spacingLeft=3;spacingRight=3;rotatable=0;labelPosition=right;points=[];portConstraint=eastwest;strokeColor=inherit;" vertex="1" parent="q2HMbp9EWCTCX8sFw67V-47">
                    <mxGeometry y="234" width="160" height="8" as="geometry"/>
                </mxCell>
                <mxCell id="q2HMbp9EWCTCX8sFw67V-57" value="+ register()" style="text;strokeColor=none;fillColor=none;align=left;verticalAlign=top;spacingLeft=4;spacingRight=4;overflow=hidden;rotatable=0;points=[[0,0.5],[1,0.5]];portConstraint=eastwest;" vertex="1" parent="q2HMbp9EWCTCX8sFw67V-47">
                    <mxGeometry y="242" width="160" height="26" as="geometry"/>
                </mxCell>
                <mxCell id="q2HMbp9EWCTCX8sFw67V-58" value="+ login()" style="text;strokeColor=none;fillColor=none;align=left;verticalAlign=top;spacingLeft=4;spacingRight=4;overflow=hidden;rotatable=0;points=[[0,0.5],[1,0.5]];portConstraint=eastwest;" vertex="1" parent="q2HMbp9EWCTCX8sFw67V-47">
                    <mxGeometry y="268" width="160" height="26" as="geometry"/>
                </mxCell>
                <mxCell id="q2HMbp9EWCTCX8sFw67V-59" style="edgeStyle=none;html=1;strokeWidth=2;startArrow=classic;startFill=1;endArrow=none;endFill=0;exitX=1;exitY=0.5;exitDx=0;exitDy=0;entryX=0.627;entryY=-0.046;entryDx=0;entryDy=0;entryPerimeter=0;" edge="1" parent="1" source="q2HMbp9EWCTCX8sFw67V-53" target="q2HMbp9EWCTCX8sFw67V-2">
                    <mxGeometry relative="1" as="geometry">
                        <mxPoint x="-3740" y="840" as="targetPoint"/>
                        <Array as="points">
                            <mxPoint x="-3740" y="639"/>
                        </Array>
                        <mxPoint x="-3790" y="640" as="sourcePoint"/>
                    </mxGeometry>
                </mxCell>
                <mxCell id="q2HMbp9EWCTCX8sFw67V-60" style="html=1;startArrow=none;startFill=0;endArrow=none;endFill=0;exitX=0.527;exitY=0.975;exitDx=0;exitDy=0;exitPerimeter=0;entryX=1;entryY=0.5;entryDx=0;entryDy=0;" edge="1" parent="1" source="q2HMbp9EWCTCX8sFw67V-72" target="q2HMbp9EWCTCX8sFw67V-92">
                    <mxGeometry relative="1" as="geometry">
                        <mxPoint x="-4325" y="1440" as="targetPoint"/>
                        <Array as="points">
                            <mxPoint x="-3745" y="1440"/>
                        </Array>
                        <mxPoint x="-3745" y="1374" as="sourcePoint"/>
                    </mxGeometry>
                </mxCell>
                <mxCell id="q2HMbp9EWCTCX8sFw67V-61" style="edgeStyle=none;html=1;entryX=0.5;entryY=1;entryDx=0;entryDy=0;startArrow=none;startFill=0;endArrow=none;endFill=0;exitX=0.426;exitY=0.007;exitDx=0;exitDy=0;exitPerimeter=0;" edge="1" parent="1" source="q2HMbp9EWCTCX8sFw67V-62" target="q2HMbp9EWCTCX8sFw67V-2">
                    <mxGeometry relative="1" as="geometry"/>
                </mxCell>
                <mxCell id="q2HMbp9EWCTCX8sFw67V-62" value="Commantaire" style="swimlane;fontStyle=1;align=center;verticalAlign=top;childLayout=stackLayout;horizontal=1;startSize=26;horizontalStack=0;resizeParent=1;resizeParentMax=0;resizeLast=0;collapsible=1;marginBottom=0;" vertex="1" parent="1">
                    <mxGeometry x="-3830" y="1158" width="160" height="268" as="geometry"/>
                </mxCell>
                <mxCell id="q2HMbp9EWCTCX8sFw67V-63" value="+ id: int" style="text;strokeColor=none;fillColor=none;align=left;verticalAlign=top;spacingLeft=4;spacingRight=4;overflow=hidden;rotatable=0;points=[[0,0.5],[1,0.5]];portConstraint=eastwest;" vertex="1" parent="q2HMbp9EWCTCX8sFw67V-62">
                    <mxGeometry y="26" width="160" height="26" as="geometry"/>
                </mxCell>
                <mxCell id="q2HMbp9EWCTCX8sFw67V-64" value="+ contenu: text" style="text;strokeColor=none;fillColor=none;align=left;verticalAlign=top;spacingLeft=4;spacingRight=4;overflow=hidden;rotatable=0;points=[[0,0.5],[1,0.5]];portConstraint=eastwest;" vertex="1" parent="q2HMbp9EWCTCX8sFw67V-62">
                    <mxGeometry y="52" width="160" height="26" as="geometry"/>
                </mxCell>
                <mxCell id="q2HMbp9EWCTCX8sFw67V-65" value="+ etoiles:number" style="text;strokeColor=none;fillColor=none;align=left;verticalAlign=top;spacingLeft=4;spacingRight=4;overflow=hidden;rotatable=0;points=[[0,0.5],[1,0.5]];portConstraint=eastwest;" vertex="1" parent="q2HMbp9EWCTCX8sFw67V-62">
                    <mxGeometry y="78" width="160" height="26" as="geometry"/>
                </mxCell>
                <mxCell id="q2HMbp9EWCTCX8sFw67V-66" value="+ user_id:user" style="text;strokeColor=none;fillColor=none;align=left;verticalAlign=top;spacingLeft=4;spacingRight=4;overflow=hidden;rotatable=0;points=[[0,0.5],[1,0.5]];portConstraint=eastwest;" vertex="1" parent="q2HMbp9EWCTCX8sFw67V-62">
                    <mxGeometry y="104" width="160" height="26" as="geometry"/>
                </mxCell>
                <mxCell id="q2HMbp9EWCTCX8sFw67V-67" value="+ formation_id:formation" style="text;strokeColor=none;fillColor=none;align=left;verticalAlign=top;spacingLeft=4;spacingRight=4;overflow=hidden;rotatable=0;points=[[0,0.5],[1,0.5]];portConstraint=eastwest;" vertex="1" parent="q2HMbp9EWCTCX8sFw67V-62">
                    <mxGeometry y="130" width="160" height="26" as="geometry"/>
                </mxCell>
                <mxCell id="q2HMbp9EWCTCX8sFw67V-68" value="" style="line;strokeWidth=1;fillColor=none;align=left;verticalAlign=middle;spacingTop=-1;spacingLeft=3;spacingRight=3;rotatable=0;labelPosition=right;points=[];portConstraint=eastwest;strokeColor=inherit;" vertex="1" parent="q2HMbp9EWCTCX8sFw67V-62">
                    <mxGeometry y="156" width="160" height="8" as="geometry"/>
                </mxCell>
                <mxCell id="q2HMbp9EWCTCX8sFw67V-69" value="+ AjouterCommentaire()" style="text;strokeColor=none;fillColor=none;align=left;verticalAlign=top;spacingLeft=4;spacingRight=4;overflow=hidden;rotatable=0;points=[[0,0.5],[1,0.5]];portConstraint=eastwest;" vertex="1" parent="q2HMbp9EWCTCX8sFw67V-62">
                    <mxGeometry y="164" width="160" height="26" as="geometry"/>
                </mxCell>
                <mxCell id="q2HMbp9EWCTCX8sFw67V-70" value="+ ModifierCommentaire()" style="text;strokeColor=none;fillColor=none;align=left;verticalAlign=top;spacingLeft=4;spacingRight=4;overflow=hidden;rotatable=0;points=[[0,0.5],[1,0.5]];portConstraint=eastwest;" vertex="1" parent="q2HMbp9EWCTCX8sFw67V-62">
                    <mxGeometry y="190" width="160" height="26" as="geometry"/>
                </mxCell>
                <mxCell id="q2HMbp9EWCTCX8sFw67V-71" value="+ VoirCommentaire()" style="text;strokeColor=none;fillColor=none;align=left;verticalAlign=top;spacingLeft=4;spacingRight=4;overflow=hidden;rotatable=0;points=[[0,0.5],[1,0.5]];portConstraint=eastwest;" vertex="1" parent="q2HMbp9EWCTCX8sFw67V-62">
                    <mxGeometry y="216" width="160" height="26" as="geometry"/>
                </mxCell>
                <mxCell id="q2HMbp9EWCTCX8sFw67V-72" value="+ AccepterCommentaire()" style="text;strokeColor=none;fillColor=none;align=left;verticalAlign=top;spacingLeft=4;spacingRight=4;overflow=hidden;rotatable=0;points=[[0,0.5],[1,0.5]];portConstraint=eastwest;" vertex="1" parent="q2HMbp9EWCTCX8sFw67V-62">
                    <mxGeometry y="242" width="160" height="26" as="geometry"/>
                </mxCell>
                <mxCell id="q2HMbp9EWCTCX8sFw67V-73" style="edgeStyle=none;html=1;startArrow=none;startFill=0;endArrow=none;endFill=0;entryX=0.25;entryY=0;entryDx=0;entryDy=0;" edge="1" parent="1" source="q2HMbp9EWCTCX8sFw67V-74" target="q2HMbp9EWCTCX8sFw67V-80">
                    <mxGeometry relative="1" as="geometry">
                        <mxPoint x="-4435" y="1120" as="targetPoint"/>
                    </mxGeometry>
                </mxCell>
                <mxCell id="q2HMbp9EWCTCX8sFw67V-74" value="&lt;p style=&quot;margin:0px;margin-top:4px;text-align:center;&quot;&gt;&lt;b&gt;Admin&lt;/b&gt;&lt;/p&gt;&lt;p style=&quot;margin:0px;margin-left:4px;&quot;&gt;&lt;br&gt;&lt;/p&gt;" style="verticalAlign=top;align=left;overflow=fill;fontSize=12;fontFamily=Helvetica;html=1;" vertex="1" parent="1">
                    <mxGeometry x="-4515" y="840" width="160" height="90" as="geometry"/>
                </mxCell>
                <mxCell id="q2HMbp9EWCTCX8sFw67V-75" style="edgeStyle=none;html=1;strokeWidth=2;startArrow=classic;startFill=1;endArrow=none;endFill=0;entryX=0.5;entryY=0;entryDx=0;entryDy=0;exitX=0;exitY=0.5;exitDx=0;exitDy=0;" edge="1" parent="1" source="q2HMbp9EWCTCX8sFw67V-53" target="q2HMbp9EWCTCX8sFw67V-74">
                    <mxGeometry relative="1" as="geometry">
                        <mxPoint x="-4580" y="856" as="targetPoint"/>
                        <Array as="points">
                            <mxPoint x="-4435" y="640"/>
                        </Array>
                        <mxPoint x="-4180" y="560" as="sourcePoint"/>
                    </mxGeometry>
                </mxCell>
                <mxCell id="q2HMbp9EWCTCX8sFw67V-76" style="html=1;strokeWidth=2;startArrow=classic;startFill=1;endArrow=none;endFill=0;exitX=0.42;exitY=1.078;exitDx=0;exitDy=0;exitPerimeter=0;" edge="1" parent="1" source="q2HMbp9EWCTCX8sFw67V-58">
                    <mxGeometry relative="1" as="geometry">
                        <mxPoint x="-4053" y="840" as="targetPoint"/>
                        <mxPoint x="-4410" y="670" as="sourcePoint"/>
                    </mxGeometry>
                </mxCell>
                <mxCell id="q2HMbp9EWCTCX8sFw67V-77" value="1" style="text;html=1;align=center;verticalAlign=middle;resizable=0;points=[];autosize=1;strokeColor=none;fillColor=none;" vertex="1" parent="1">
                    <mxGeometry x="-4470" y="938" width="30" height="30" as="geometry"/>
                </mxCell>
                <mxCell id="q2HMbp9EWCTCX8sFw67V-78" value="*" style="text;html=1;align=center;verticalAlign=middle;resizable=0;points=[];autosize=1;strokeColor=none;fillColor=none;" vertex="1" parent="1">
                    <mxGeometry x="-4470" y="1100" width="30" height="30" as="geometry"/>
                </mxCell>
                <mxCell id="q2HMbp9EWCTCX8sFw67V-79" value="manager" style="text;html=1;align=center;verticalAlign=middle;resizable=0;points=[];autosize=1;strokeColor=none;fillColor=none;" vertex="1" parent="1">
                    <mxGeometry x="-4430" y="1020" width="70" height="30" as="geometry"/>
                </mxCell>
                <mxCell id="q2HMbp9EWCTCX8sFw67V-80" value="Formation" style="swimlane;fontStyle=1;align=center;verticalAlign=top;childLayout=stackLayout;horizontal=1;startSize=26;horizontalStack=0;resizeParent=1;resizeParentMax=0;resizeLast=0;collapsible=1;marginBottom=0;" vertex="1" parent="1">
                    <mxGeometry x="-4485" y="1130" width="205" height="398" as="geometry"/>
                </mxCell>
                <mxCell id="q2HMbp9EWCTCX8sFw67V-81" value="+id:int" style="text;strokeColor=none;fillColor=none;align=left;verticalAlign=top;spacingLeft=4;spacingRight=4;overflow=hidden;rotatable=0;points=[[0,0.5],[1,0.5]];portConstraint=eastwest;" vertex="1" parent="q2HMbp9EWCTCX8sFw67V-80">
                    <mxGeometry y="26" width="205" height="26" as="geometry"/>
                </mxCell>
                <mxCell id="q2HMbp9EWCTCX8sFw67V-82" value="+ titre: string" style="text;strokeColor=none;fillColor=none;align=left;verticalAlign=top;spacingLeft=4;spacingRight=4;overflow=hidden;rotatable=0;points=[[0,0.5],[1,0.5]];portConstraint=eastwest;" vertex="1" parent="q2HMbp9EWCTCX8sFw67V-80">
                    <mxGeometry y="52" width="205" height="26" as="geometry"/>
                </mxCell>
                <mxCell id="q2HMbp9EWCTCX8sFw67V-83" value="+ description: string" style="text;strokeColor=none;fillColor=none;align=left;verticalAlign=top;spacingLeft=4;spacingRight=4;overflow=hidden;rotatable=0;points=[[0,0.5],[1,0.5]];portConstraint=eastwest;" vertex="1" parent="q2HMbp9EWCTCX8sFw67V-80">
                    <mxGeometry y="78" width="205" height="26" as="geometry"/>
                </mxCell>
                <mxCell id="q2HMbp9EWCTCX8sFw67V-84" value="+ prix: float" style="text;strokeColor=none;fillColor=none;align=left;verticalAlign=top;spacingLeft=4;spacingRight=4;overflow=hidden;rotatable=0;points=[[0,0.5],[1,0.5]];portConstraint=eastwest;" vertex="1" parent="q2HMbp9EWCTCX8sFw67V-80">
                    <mxGeometry y="104" width="205" height="26" as="geometry"/>
                </mxCell>
                <mxCell id="q2HMbp9EWCTCX8sFw67V-85" value="+ status: boolean" style="text;strokeColor=none;fillColor=none;align=left;verticalAlign=top;spacingLeft=4;spacingRight=4;overflow=hidden;rotatable=0;points=[[0,0.5],[1,0.5]];portConstraint=eastwest;" vertex="1" parent="q2HMbp9EWCTCX8sFw67V-80">
                    <mxGeometry y="130" width="205" height="26" as="geometry"/>
                </mxCell>
                <mxCell id="q2HMbp9EWCTCX8sFw67V-86" value="+ duration: string" style="text;strokeColor=none;fillColor=none;align=left;verticalAlign=top;spacingLeft=4;spacingRight=4;overflow=hidden;rotatable=0;points=[[0,0.5],[1,0.5]];portConstraint=eastwest;" vertex="1" parent="q2HMbp9EWCTCX8sFw67V-80">
                    <mxGeometry y="156" width="205" height="26" as="geometry"/>
                </mxCell>
                <mxCell id="q2HMbp9EWCTCX8sFw67V-87" value="+ categorie: string" style="text;strokeColor=none;fillColor=none;align=left;verticalAlign=top;spacingLeft=4;spacingRight=4;overflow=hidden;rotatable=0;points=[[0,0.5],[1,0.5]];portConstraint=eastwest;" vertex="1" parent="q2HMbp9EWCTCX8sFw67V-80">
                    <mxGeometry y="182" width="205" height="26" as="geometry"/>
                </mxCell>
                <mxCell id="q2HMbp9EWCTCX8sFw67V-88" value="+ programme: string" style="text;strokeColor=none;fillColor=none;align=left;verticalAlign=top;spacingLeft=4;spacingRight=4;overflow=hidden;rotatable=0;points=[[0,0.5],[1,0.5]];portConstraint=eastwest;" vertex="1" parent="q2HMbp9EWCTCX8sFw67V-80">
                    <mxGeometry y="208" width="205" height="26" as="geometry"/>
                </mxCell>
                <mxCell id="q2HMbp9EWCTCX8sFw67V-89" value="+ typeFormation_id: typeFormation" style="text;strokeColor=none;fillColor=none;align=left;verticalAlign=top;spacingLeft=4;spacingRight=4;overflow=hidden;rotatable=0;points=[[0,0.5],[1,0.5]];portConstraint=eastwest;" vertex="1" parent="q2HMbp9EWCTCX8sFw67V-80">
                    <mxGeometry y="234" width="205" height="26" as="geometry"/>
                </mxCell>
                <mxCell id="q2HMbp9EWCTCX8sFw67V-90" value="+ user_id: user&#10;" style="text;strokeColor=none;fillColor=none;align=left;verticalAlign=top;spacingLeft=4;spacingRight=4;overflow=hidden;rotatable=0;points=[[0,0.5],[1,0.5]];portConstraint=eastwest;" vertex="1" parent="q2HMbp9EWCTCX8sFw67V-80">
                    <mxGeometry y="260" width="205" height="26" as="geometry"/>
                </mxCell>
                <mxCell id="q2HMbp9EWCTCX8sFw67V-91" value="" style="line;strokeWidth=1;fillColor=none;align=left;verticalAlign=middle;spacingTop=-1;spacingLeft=3;spacingRight=3;rotatable=0;labelPosition=right;points=[];portConstraint=eastwest;strokeColor=inherit;" vertex="1" parent="q2HMbp9EWCTCX8sFw67V-80">
                    <mxGeometry y="286" width="205" height="8" as="geometry"/>
                </mxCell>
                <mxCell id="q2HMbp9EWCTCX8sFw67V-92" value="+ ArchiverFormation()" style="text;strokeColor=none;fillColor=none;align=left;verticalAlign=top;spacingLeft=4;spacingRight=4;overflow=hidden;rotatable=0;points=[[0,0.5],[1,0.5]];portConstraint=eastwest;" vertex="1" parent="q2HMbp9EWCTCX8sFw67V-80">
                    <mxGeometry y="294" width="205" height="26" as="geometry"/>
                </mxCell>
                <mxCell id="q2HMbp9EWCTCX8sFw67V-93" value="+ AjouterFormation()" style="text;strokeColor=none;fillColor=none;align=left;verticalAlign=top;spacingLeft=4;spacingRight=4;overflow=hidden;rotatable=0;points=[[0,0.5],[1,0.5]];portConstraint=eastwest;" vertex="1" parent="q2HMbp9EWCTCX8sFw67V-80">
                    <mxGeometry y="320" width="205" height="26" as="geometry"/>
                </mxCell>
                <mxCell id="q2HMbp9EWCTCX8sFw67V-94" value="+ ModifierFormation()" style="text;strokeColor=none;fillColor=none;align=left;verticalAlign=top;spacingLeft=4;spacingRight=4;overflow=hidden;rotatable=0;points=[[0,0.5],[1,0.5]];portConstraint=eastwest;" vertex="1" parent="q2HMbp9EWCTCX8sFw67V-80">
                    <mxGeometry y="346" width="205" height="26" as="geometry"/>
                </mxCell>
                <mxCell id="q2HMbp9EWCTCX8sFw67V-95" value="+ VoirFormation()" style="text;strokeColor=none;fillColor=none;align=left;verticalAlign=top;spacingLeft=4;spacingRight=4;overflow=hidden;rotatable=0;points=[[0,0.5],[1,0.5]];portConstraint=eastwest;" vertex="1" parent="q2HMbp9EWCTCX8sFw67V-80">
                    <mxGeometry y="372" width="205" height="26" as="geometry"/>
                </mxCell>
                <mxCell id="q2HMbp9EWCTCX8sFw67V-96" value="1" style="text;html=1;align=center;verticalAlign=middle;resizable=0;points=[];autosize=1;strokeColor=none;fillColor=none;" vertex="1" parent="1">
                    <mxGeometry x="-3745" y="1130" width="30" height="30" as="geometry"/>
                </mxCell>
                <mxCell id="q2HMbp9EWCTCX8sFw67V-97" value="1" style="text;html=1;align=center;verticalAlign=middle;resizable=0;points=[];autosize=1;strokeColor=none;fillColor=none;" vertex="1" parent="1">
                    <mxGeometry x="-3765" y="938" width="30" height="30" as="geometry"/>
                </mxCell>
                <mxCell id="q2HMbp9EWCTCX8sFw67V-98" value="1" style="text;html=1;align=center;verticalAlign=middle;resizable=0;points=[];autosize=1;strokeColor=none;fillColor=none;" vertex="1" parent="1">
                    <mxGeometry x="-4520" y="1290" width="30" height="30" as="geometry"/>
                </mxCell>
                <mxCell id="q2HMbp9EWCTCX8sFw67V-99" value="0..*" style="text;html=1;align=center;verticalAlign=middle;resizable=0;points=[];autosize=1;strokeColor=none;fillColor=none;" vertex="1" parent="1">
                    <mxGeometry x="-3785" y="1440" width="40" height="30" as="geometry"/>
                </mxCell>
                <mxCell id="q2HMbp9EWCTCX8sFw67V-100" value="1" style="text;html=1;align=center;verticalAlign=middle;resizable=0;points=[];autosize=1;strokeColor=none;fillColor=none;" vertex="1" parent="1">
                    <mxGeometry x="-4272" y="1402" width="30" height="30" as="geometry"/>
                </mxCell>
                <mxCell id="q2HMbp9EWCTCX8sFw67V-101" value="Role" style="swimlane;fontStyle=1;align=center;verticalAlign=top;childLayout=stackLayout;horizontal=1;startSize=26;horizontalStack=0;resizeParent=1;resizeParentMax=0;resizeLast=0;collapsible=1;marginBottom=0;" vertex="1" parent="1">
                    <mxGeometry x="-4420" y="501" width="160" height="86" as="geometry"/>
                </mxCell>
                <mxCell id="q2HMbp9EWCTCX8sFw67V-102" value="+id :int" style="text;strokeColor=none;fillColor=none;align=left;verticalAlign=top;spacingLeft=4;spacingRight=4;overflow=hidden;rotatable=0;points=[[0,0.5],[1,0.5]];portConstraint=eastwest;" vertex="1" parent="q2HMbp9EWCTCX8sFw67V-101">
                    <mxGeometry y="26" width="160" height="26" as="geometry"/>
                </mxCell>
                <mxCell id="q2HMbp9EWCTCX8sFw67V-103" value="+nom:sring" style="text;strokeColor=none;fillColor=none;align=left;verticalAlign=top;spacingLeft=4;spacingRight=4;overflow=hidden;rotatable=0;points=[[0,0.5],[1,0.5]];portConstraint=eastwest;" vertex="1" parent="q2HMbp9EWCTCX8sFw67V-101">
                    <mxGeometry y="52" width="160" height="26" as="geometry"/>
                </mxCell>
                <mxCell id="q2HMbp9EWCTCX8sFw67V-104" value="" style="line;strokeWidth=1;fillColor=none;align=left;verticalAlign=middle;spacingTop=-1;spacingLeft=3;spacingRight=3;rotatable=0;labelPosition=right;points=[];portConstraint=eastwest;strokeColor=inherit;" vertex="1" parent="q2HMbp9EWCTCX8sFw67V-101">
                    <mxGeometry y="78" width="160" height="8" as="geometry"/>
                </mxCell>
                <mxCell id="q2HMbp9EWCTCX8sFw67V-105" value="1" style="text;html=1;align=center;verticalAlign=middle;resizable=0;points=[];autosize=1;strokeColor=none;fillColor=none;" vertex="1" parent="1">
                    <mxGeometry x="-4250" y="526" width="30" height="30" as="geometry"/>
                </mxCell>
                <mxCell id="q2HMbp9EWCTCX8sFw67V-106" value="1..*" style="text;html=1;align=center;verticalAlign=middle;resizable=0;points=[];autosize=1;strokeColor=none;fillColor=none;" vertex="1" parent="1">
                    <mxGeometry x="-4170" y="526" width="40" height="30" as="geometry"/>
                </mxCell>
                <mxCell id="q2HMbp9EWCTCX8sFw67V-107" value="*" style="text;html=1;align=center;verticalAlign=middle;resizable=0;points=[];autosize=1;strokeColor=none;fillColor=none;" vertex="1" parent="1">
                    <mxGeometry x="-4400" y="1528" width="30" height="30" as="geometry"/>
                </mxCell>
                <mxCell id="q2HMbp9EWCTCX8sFw67V-108" style="html=1;entryX=0.998;entryY=0.284;entryDx=0;entryDy=0;startArrow=none;startFill=0;endArrow=none;endFill=0;entryPerimeter=0;exitX=0;exitY=0.5;exitDx=0;exitDy=0;" edge="1" parent="1" source="q2HMbp9EWCTCX8sFw67V-50" target="q2HMbp9EWCTCX8sFw67V-103">
                    <mxGeometry relative="1" as="geometry">
                        <mxPoint x="-4120" y="559" as="sourcePoint"/>
                        <mxPoint x="-4285" y="559.9999999999998" as="targetPoint"/>
                    </mxGeometry>
                </mxCell>
                <mxCell id="q2HMbp9EWCTCX8sFw67V-109" value="Question" style="swimlane;fontStyle=1;align=center;verticalAlign=top;childLayout=stackLayout;horizontal=1;startSize=26;horizontalStack=0;resizeParent=1;resizeParentMax=0;resizeLast=0;collapsible=1;marginBottom=0;" vertex="1" parent="1">
                    <mxGeometry x="-5114" y="1238" width="160" height="216" as="geometry"/>
                </mxCell>
                <mxCell id="q2HMbp9EWCTCX8sFw67V-110" value="+ id: int&#10;&#10;&#10;&#10;&#10;&#10;&#10;&#10;" style="text;strokeColor=none;fillColor=none;align=left;verticalAlign=top;spacingLeft=4;spacingRight=4;overflow=hidden;rotatable=0;points=[[0,0.5],[1,0.5]];portConstraint=eastwest;" vertex="1" parent="q2HMbp9EWCTCX8sFw67V-109">
                    <mxGeometry y="26" width="160" height="26" as="geometry"/>
                </mxCell>
                <mxCell id="q2HMbp9EWCTCX8sFw67V-111" value="+ question: string&#10;&#10;&#10;&#10;&#10;" style="text;strokeColor=none;fillColor=none;align=left;verticalAlign=top;spacingLeft=4;spacingRight=4;overflow=hidden;rotatable=0;points=[[0,0.5],[1,0.5]];portConstraint=eastwest;" vertex="1" parent="q2HMbp9EWCTCX8sFw67V-109">
                    <mxGeometry y="52" width="160" height="26" as="geometry"/>
                </mxCell>
                <mxCell id="q2HMbp9EWCTCX8sFw67V-112" value="+ quiz_id:quiz" style="text;strokeColor=none;fillColor=none;align=left;verticalAlign=top;spacingLeft=4;spacingRight=4;overflow=hidden;rotatable=0;points=[[0,0.5],[1,0.5]];portConstraint=eastwest;" vertex="1" parent="q2HMbp9EWCTCX8sFw67V-109">
                    <mxGeometry y="78" width="160" height="26" as="geometry"/>
                </mxCell>
                <mxCell id="q2HMbp9EWCTCX8sFw67V-113" value="" style="line;strokeWidth=1;fillColor=none;align=left;verticalAlign=middle;spacingTop=-1;spacingLeft=3;spacingRight=3;rotatable=0;labelPosition=right;points=[];portConstraint=eastwest;strokeColor=inherit;" vertex="1" parent="q2HMbp9EWCTCX8sFw67V-109">
                    <mxGeometry y="104" width="160" height="8" as="geometry"/>
                </mxCell>
                <mxCell id="q2HMbp9EWCTCX8sFw67V-114" value="+ AjouterQuestion()" style="text;strokeColor=none;fillColor=none;align=left;verticalAlign=top;spacingLeft=4;spacingRight=4;overflow=hidden;rotatable=0;points=[[0,0.5],[1,0.5]];portConstraint=eastwest;" vertex="1" parent="q2HMbp9EWCTCX8sFw67V-109">
                    <mxGeometry y="112" width="160" height="26" as="geometry"/>
                </mxCell>
                <mxCell id="q2HMbp9EWCTCX8sFw67V-115" value="+ ModifierQuestion()" style="text;strokeColor=none;fillColor=none;align=left;verticalAlign=top;spacingLeft=4;spacingRight=4;overflow=hidden;rotatable=0;points=[[0,0.5],[1,0.5]];portConstraint=eastwest;" vertex="1" parent="q2HMbp9EWCTCX8sFw67V-109">
                    <mxGeometry y="138" width="160" height="26" as="geometry"/>
                </mxCell>
                <mxCell id="q2HMbp9EWCTCX8sFw67V-116" value="+ VoirQuestion()" style="text;strokeColor=none;fillColor=none;align=left;verticalAlign=top;spacingLeft=4;spacingRight=4;overflow=hidden;rotatable=0;points=[[0,0.5],[1,0.5]];portConstraint=eastwest;" vertex="1" parent="q2HMbp9EWCTCX8sFw67V-109">
                    <mxGeometry y="164" width="160" height="26" as="geometry"/>
                </mxCell>
                <mxCell id="q2HMbp9EWCTCX8sFw67V-117" value="+ SuprimerQuestion()" style="text;strokeColor=none;fillColor=none;align=left;verticalAlign=top;spacingLeft=4;spacingRight=4;overflow=hidden;rotatable=0;points=[[0,0.5],[1,0.5]];portConstraint=eastwest;" vertex="1" parent="q2HMbp9EWCTCX8sFw67V-109">
                    <mxGeometry y="190" width="160" height="26" as="geometry"/>
                </mxCell>
                <mxCell id="q2HMbp9EWCTCX8sFw67V-118" style="edgeStyle=none;html=1;exitX=1.013;exitY=0.079;exitDx=0;exitDy=0;startArrow=none;startFill=0;endArrow=none;endFill=0;exitPerimeter=0;entryX=0.007;entryY=1.296;entryDx=0;entryDy=0;entryPerimeter=0;" edge="1" parent="1">
                    <mxGeometry relative="1" as="geometry">
                        <mxPoint x="-4800" y="1319.996" as="targetPoint"/>
                        <mxPoint x="-4954.04" y="1320.3539999999998" as="sourcePoint"/>
                    </mxGeometry>
                </mxCell>
                <mxCell id="q2HMbp9EWCTCX8sFw67V-119" value="1" style="text;align=center;fontStyle=1;verticalAlign=middle;spacingLeft=3;spacingRight=3;strokeColor=none;rotatable=0;points=[[0,0.5],[1,0.5]];portConstraint=eastwest;" vertex="1" parent="1">
                    <mxGeometry x="-4850" y="1294" width="50" height="26" as="geometry"/>
                </mxCell>
                <mxCell id="q2HMbp9EWCTCX8sFw67V-120" value="1..*" style="text;align=center;fontStyle=1;verticalAlign=middle;spacingLeft=3;spacingRight=3;strokeColor=none;rotatable=0;points=[[0,0.5],[1,0.5]];portConstraint=eastwest;" vertex="1" parent="1">
                    <mxGeometry x="-4966" y="1294" width="50" height="26" as="geometry"/>
                </mxCell>
                <mxCell id="q2HMbp9EWCTCX8sFw67V-121" style="edgeStyle=none;html=1;entryX=0.211;entryY=1.053;entryDx=0;entryDy=0;endArrow=none;endFill=0;entryPerimeter=0;" edge="1" parent="1" target="q2HMbp9EWCTCX8sFw67V-133">
                    <mxGeometry relative="1" as="geometry">
                        <mxPoint x="-5039.22" y="1427.7399999999998" as="targetPoint"/>
                        <mxPoint x="-5039.996071589984" y="1554" as="sourcePoint"/>
                    </mxGeometry>
                </mxCell>
                <mxCell id="q2HMbp9EWCTCX8sFw67V-122" value="Reponse" style="swimlane;fontStyle=1;align=center;verticalAlign=top;childLayout=stackLayout;horizontal=1;startSize=26;horizontalStack=0;resizeParent=1;resizeParentMax=0;resizeLast=0;collapsible=1;marginBottom=0;" vertex="1" parent="1">
                    <mxGeometry x="-5118" y="1555" width="160" height="242" as="geometry"/>
                </mxCell>
                <mxCell id="q2HMbp9EWCTCX8sFw67V-123" value="+ id: int&#10;&#10;&#10;&#10;&#10;&#10;&#10;&#10;" style="text;strokeColor=none;fillColor=none;align=left;verticalAlign=top;spacingLeft=4;spacingRight=4;overflow=hidden;rotatable=0;points=[[0,0.5],[1,0.5]];portConstraint=eastwest;" vertex="1" parent="q2HMbp9EWCTCX8sFw67V-122">
                    <mxGeometry y="26" width="160" height="26" as="geometry"/>
                </mxCell>
                <mxCell id="q2HMbp9EWCTCX8sFw67V-124" value="+ réponse: string" style="text;strokeColor=none;fillColor=none;align=left;verticalAlign=top;spacingLeft=4;spacingRight=4;overflow=hidden;rotatable=0;points=[[0,0.5],[1,0.5]];portConstraint=eastwest;" vertex="1" parent="q2HMbp9EWCTCX8sFw67V-122">
                    <mxGeometry y="52" width="160" height="26" as="geometry"/>
                </mxCell>
                <mxCell id="q2HMbp9EWCTCX8sFw67V-125" value="+ correct: boolean" style="text;strokeColor=none;fillColor=none;align=left;verticalAlign=top;spacingLeft=4;spacingRight=4;overflow=hidden;rotatable=0;points=[[0,0.5],[1,0.5]];portConstraint=eastwest;" vertex="1" parent="q2HMbp9EWCTCX8sFw67V-122">
                    <mxGeometry y="78" width="160" height="26" as="geometry"/>
                </mxCell>
                <mxCell id="q2HMbp9EWCTCX8sFw67V-126" value="+ question_id:question" style="text;strokeColor=none;fillColor=none;align=left;verticalAlign=top;spacingLeft=4;spacingRight=4;overflow=hidden;rotatable=0;points=[[0,0.5],[1,0.5]];portConstraint=eastwest;" vertex="1" parent="q2HMbp9EWCTCX8sFw67V-122">
                    <mxGeometry y="104" width="160" height="26" as="geometry"/>
                </mxCell>
                <mxCell id="q2HMbp9EWCTCX8sFw67V-127" value="" style="line;strokeWidth=1;fillColor=none;align=left;verticalAlign=middle;spacingTop=-1;spacingLeft=3;spacingRight=3;rotatable=0;labelPosition=right;points=[];portConstraint=eastwest;strokeColor=inherit;" vertex="1" parent="q2HMbp9EWCTCX8sFw67V-122">
                    <mxGeometry y="130" width="160" height="8" as="geometry"/>
                </mxCell>
                <mxCell id="q2HMbp9EWCTCX8sFw67V-128" value="+ AjouterRéponse()" style="text;strokeColor=none;fillColor=none;align=left;verticalAlign=top;spacingLeft=4;spacingRight=4;overflow=hidden;rotatable=0;points=[[0,0.5],[1,0.5]];portConstraint=eastwest;" vertex="1" parent="q2HMbp9EWCTCX8sFw67V-122">
                    <mxGeometry y="138" width="160" height="26" as="geometry"/>
                </mxCell>
                <mxCell id="q2HMbp9EWCTCX8sFw67V-129" value="+ ModifierRéponse()" style="text;strokeColor=none;fillColor=none;align=left;verticalAlign=top;spacingLeft=4;spacingRight=4;overflow=hidden;rotatable=0;points=[[0,0.5],[1,0.5]];portConstraint=eastwest;" vertex="1" parent="q2HMbp9EWCTCX8sFw67V-122">
                    <mxGeometry y="164" width="160" height="26" as="geometry"/>
                </mxCell>
                <mxCell id="q2HMbp9EWCTCX8sFw67V-130" value="+ VoirRéponse()" style="text;strokeColor=none;fillColor=none;align=left;verticalAlign=top;spacingLeft=4;spacingRight=4;overflow=hidden;rotatable=0;points=[[0,0.5],[1,0.5]];portConstraint=eastwest;" vertex="1" parent="q2HMbp9EWCTCX8sFw67V-122">
                    <mxGeometry y="190" width="160" height="26" as="geometry"/>
                </mxCell>
                <mxCell id="q2HMbp9EWCTCX8sFw67V-131" value="+ SuprimerRéponse()" style="text;strokeColor=none;fillColor=none;align=left;verticalAlign=top;spacingLeft=4;spacingRight=4;overflow=hidden;rotatable=0;points=[[0,0.5],[1,0.5]];portConstraint=eastwest;" vertex="1" parent="q2HMbp9EWCTCX8sFw67V-122">
                    <mxGeometry y="216" width="160" height="26" as="geometry"/>
                </mxCell>
                <mxCell id="q2HMbp9EWCTCX8sFw67V-132" value="1..*" style="text;align=center;fontStyle=1;verticalAlign=middle;spacingLeft=3;spacingRight=3;strokeColor=none;rotatable=0;points=[[0,0.5],[1,0.5]];portConstraint=eastwest;" vertex="1" parent="1">
                    <mxGeometry x="-5040" y="1532" width="50" height="26" as="geometry"/>
                </mxCell>
                <mxCell id="q2HMbp9EWCTCX8sFw67V-133" value="1" style="text;align=center;fontStyle=1;verticalAlign=middle;spacingLeft=3;spacingRight=3;strokeColor=none;rotatable=0;points=[[0,0.5],[1,0.5]];portConstraint=eastwest;" vertex="1" parent="1">
                    <mxGeometry x="-5050" y="1430" width="50" height="26" as="geometry"/>
                </mxCell>
                <mxCell id="q2HMbp9EWCTCX8sFw67V-134" style="edgeStyle=none;html=1;endArrow=none;endFill=0;" edge="1" parent="1">
                    <mxGeometry relative="1" as="geometry">
                        <mxPoint x="-4720" y="1484" as="targetPoint"/>
                        <mxPoint x="-4720" y="2000" as="sourcePoint"/>
                    </mxGeometry>
                </mxCell>
                <mxCell id="q2HMbp9EWCTCX8sFw67V-135" style="edgeStyle=none;html=1;exitX=1.014;exitY=-0.236;exitDx=0;exitDy=0;endArrow=none;endFill=0;exitPerimeter=0;" edge="1" parent="1">
                    <mxGeometry relative="1" as="geometry">
                        <mxPoint x="-4720" y="2000.0039999999995" as="sourcePoint"/>
                        <mxPoint x="-3480" y="2000" as="targetPoint"/>
                    </mxGeometry>
                </mxCell>
                <mxCell id="q2HMbp9EWCTCX8sFw67V-136" style="edgeStyle=none;html=1;endArrow=none;endFill=0;" edge="1" parent="1">
                    <mxGeometry relative="1" as="geometry">
                        <mxPoint x="-3480" y="880" as="targetPoint"/>
                        <mxPoint x="-3480" y="2000.9999999999995" as="sourcePoint"/>
                    </mxGeometry>
                </mxCell>
                <mxCell id="q2HMbp9EWCTCX8sFw67V-137" style="edgeStyle=none;html=1;startArrow=none;startFill=0;endArrow=none;endFill=0;" edge="1" parent="1">
                    <mxGeometry relative="1" as="geometry">
                        <mxPoint x="-3480" y="881" as="targetPoint"/>
                        <mxPoint x="-3680" y="881" as="sourcePoint"/>
                    </mxGeometry>
                </mxCell>
                <mxCell id="q2HMbp9EWCTCX8sFw67V-138" value="1..*" style="text;align=center;fontStyle=1;verticalAlign=middle;spacingLeft=3;spacingRight=3;strokeColor=none;rotatable=0;points=[[0,0.5],[1,0.5]];portConstraint=eastwest;" vertex="1" parent="1">
                    <mxGeometry x="-4730" y="1490" width="50" height="26" as="geometry"/>
                </mxCell>
                <mxCell id="q2HMbp9EWCTCX8sFw67V-139" value="1..*" style="text;align=center;fontStyle=1;verticalAlign=middle;spacingLeft=3;spacingRight=3;strokeColor=none;rotatable=0;points=[[0,0.5],[1,0.5]];portConstraint=eastwest;" vertex="1" parent="1">
                    <mxGeometry x="-3680" y="840" width="50" height="26" as="geometry"/>
                </mxCell>
                <mxCell id="q2HMbp9EWCTCX8sFw67V-140" value="user_quiz" style="swimlane;fontStyle=1;align=center;verticalAlign=top;childLayout=stackLayout;horizontal=1;startSize=26;horizontalStack=0;resizeParent=1;resizeParentMax=0;resizeLast=0;collapsible=1;marginBottom=0;" vertex="1" parent="1">
                    <mxGeometry x="-3630" y="1980" width="160" height="112" as="geometry"/>
                </mxCell>
                <mxCell id="q2HMbp9EWCTCX8sFw67V-141" value="+ score:int" style="text;strokeColor=none;fillColor=none;align=left;verticalAlign=top;spacingLeft=4;spacingRight=4;overflow=hidden;rotatable=0;points=[[0,0.5],[1,0.5]];portConstraint=eastwest;" vertex="1" parent="q2HMbp9EWCTCX8sFw67V-140">
                    <mxGeometry y="26" width="160" height="26" as="geometry"/>
                </mxCell>
                <mxCell id="q2HMbp9EWCTCX8sFw67V-142" value="+ user_id: user" style="text;strokeColor=none;fillColor=none;align=left;verticalAlign=top;spacingLeft=4;spacingRight=4;overflow=hidden;rotatable=0;points=[[0,0.5],[1,0.5]];portConstraint=eastwest;" vertex="1" parent="q2HMbp9EWCTCX8sFw67V-140">
                    <mxGeometry y="52" width="160" height="26" as="geometry"/>
                </mxCell>
                <mxCell id="q2HMbp9EWCTCX8sFw67V-143" value="+ quiz_id: Quiz" style="text;strokeColor=none;fillColor=none;align=left;verticalAlign=top;spacingLeft=4;spacingRight=4;overflow=hidden;rotatable=0;points=[[0,0.5],[1,0.5]];portConstraint=eastwest;" vertex="1" parent="q2HMbp9EWCTCX8sFw67V-140">
                    <mxGeometry y="78" width="160" height="26" as="geometry"/>
                </mxCell>
                <mxCell id="q2HMbp9EWCTCX8sFw67V-144" value="" style="line;strokeWidth=1;fillColor=none;align=left;verticalAlign=middle;spacingTop=-1;spacingLeft=3;spacingRight=3;rotatable=0;labelPosition=right;points=[];portConstraint=eastwest;strokeColor=inherit;" vertex="1" parent="q2HMbp9EWCTCX8sFw67V-140">
                    <mxGeometry y="104" width="160" height="8" as="geometry"/>
                </mxCell>
                <mxCell id="q2HMbp9EWCTCX8sFw67V-145" value="1" style="text;align=center;fontStyle=1;verticalAlign=middle;spacingLeft=3;spacingRight=3;strokeColor=none;rotatable=0;points=[[0,0.5],[1,0.5]];portConstraint=eastwest;" vertex="1" parent="1">
                    <mxGeometry x="-5050" y="1454" width="50" height="26" as="geometry"/>
                </mxCell>
            </root>
        </mxGraphModel>
    </diagram>
    <diagram id="mFFPx1-e8fdPo7IgRLKK" name="Use Case Diagram">
        <mxGraphModel dx="2813" dy="1427" grid="1" gridSize="10" guides="1" tooltips="1" connect="1" arrows="1" fold="1" page="0" pageScale="1" pageWidth="850" pageHeight="1100" math="0" shadow="0">
            <root>
                <mxCell id="0"/>
                <mxCell id="1" parent="0"/>
                <mxCell id="6LFA1IaQUByzfYQtSqcc-1" value="visiteur" style="shape=umlActor;verticalLabelPosition=bottom;verticalAlign=top;html=1;" vertex="1" parent="1">
                    <mxGeometry x="-240" y="60" width="30" height="60" as="geometry"/>
                </mxCell>
                <mxCell id="6LFA1IaQUByzfYQtSqcc-2" value="Apprenant&amp;nbsp;" style="shape=umlActor;verticalLabelPosition=bottom;verticalAlign=top;html=1;" vertex="1" parent="1">
                    <mxGeometry x="-240" y="395" width="30" height="60" as="geometry"/>
                </mxCell>
                <mxCell id="6LFA1IaQUByzfYQtSqcc-3" value="consulter la page home" style="ellipse;whiteSpace=wrap;html=1;" vertex="1" parent="1">
                    <mxGeometry x="195" y="15" width="140" height="45" as="geometry"/>
                </mxCell>
                <mxCell id="6LFA1IaQUByzfYQtSqcc-4" value="Contacter nous via form" style="ellipse;whiteSpace=wrap;html=1;" vertex="1" parent="1">
                    <mxGeometry x="197" y="68.5" width="140" height="45" as="geometry"/>
                </mxCell>
                <mxCell id="6LFA1IaQUByzfYQtSqcc-5" value="Consulter les formations et ses types" style="ellipse;whiteSpace=wrap;html=1;" vertex="1" parent="1">
                    <mxGeometry x="197" y="120" width="140" height="45" as="geometry"/>
                </mxCell>
                <mxCell id="6LFA1IaQUByzfYQtSqcc-6" value="Faire une reservation telephonique en ligne" style="ellipse;whiteSpace=wrap;html=1;" vertex="1" parent="1">
                    <mxGeometry x="198" y="175" width="140" height="45" as="geometry"/>
                </mxCell>
                <mxCell id="6LFA1IaQUByzfYQtSqcc-7" value="" style="endArrow=none;html=1;entryX=0;entryY=0.5;entryDx=0;entryDy=0;" edge="1" parent="1" target="6LFA1IaQUByzfYQtSqcc-3">
                    <mxGeometry width="50" height="50" relative="1" as="geometry">
                        <mxPoint x="-180" y="120" as="sourcePoint"/>
                        <mxPoint x="65" y="90" as="targetPoint"/>
                    </mxGeometry>
                </mxCell>
                <mxCell id="6LFA1IaQUByzfYQtSqcc-8" value="" style="endArrow=none;html=1;entryX=0;entryY=0.5;entryDx=0;entryDy=0;" edge="1" parent="1" target="6LFA1IaQUByzfYQtSqcc-4">
                    <mxGeometry width="50" height="50" relative="1" as="geometry">
                        <mxPoint x="-180" y="120" as="sourcePoint"/>
                        <mxPoint x="210" y="52.5" as="targetPoint"/>
                    </mxGeometry>
                </mxCell>
                <mxCell id="6LFA1IaQUByzfYQtSqcc-9" value="" style="endArrow=none;html=1;entryX=0;entryY=0.5;entryDx=0;entryDy=0;" edge="1" parent="1" target="6LFA1IaQUByzfYQtSqcc-5">
                    <mxGeometry width="50" height="50" relative="1" as="geometry">
                        <mxPoint x="-165" y="120" as="sourcePoint"/>
                        <mxPoint x="212" y="106" as="targetPoint"/>
                    </mxGeometry>
                </mxCell>
                <mxCell id="6LFA1IaQUByzfYQtSqcc-10" value="" style="endArrow=none;html=1;entryX=0;entryY=0.5;entryDx=0;entryDy=0;" edge="1" parent="1" target="6LFA1IaQUByzfYQtSqcc-6">
                    <mxGeometry width="50" height="50" relative="1" as="geometry">
                        <mxPoint x="-180" y="120" as="sourcePoint"/>
                        <mxPoint x="212" y="157.5" as="targetPoint"/>
                    </mxGeometry>
                </mxCell>
                <mxCell id="6LFA1IaQUByzfYQtSqcc-11" value="Consulter les formations" style="ellipse;whiteSpace=wrap;html=1;" vertex="1" parent="1">
                    <mxGeometry x="207.5" y="300" width="137.5" height="60" as="geometry"/>
                </mxCell>
                <mxCell id="6LFA1IaQUByzfYQtSqcc-12" value="Voir ses camarades&amp;nbsp;" style="ellipse;whiteSpace=wrap;html=1;" vertex="1" parent="1">
                    <mxGeometry x="204" y="368" width="146.5" height="52.5" as="geometry"/>
                </mxCell>
                <mxCell id="6LFA1IaQUByzfYQtSqcc-13" value="Accés au contenu de la formation + quizz" style="ellipse;whiteSpace=wrap;html=1;" vertex="1" parent="1">
                    <mxGeometry x="206.5" y="427" width="146.5" height="60" as="geometry"/>
                </mxCell>
                <mxCell id="6LFA1IaQUByzfYQtSqcc-14" value="Faire un commentaire sur la qualité de formation" style="ellipse;whiteSpace=wrap;html=1;" vertex="1" parent="1">
                    <mxGeometry x="211" y="491" width="150" height="60" as="geometry"/>
                </mxCell>
                <mxCell id="6LFA1IaQUByzfYQtSqcc-15" value="" style="endArrow=none;html=1;entryX=0;entryY=0.5;entryDx=0;entryDy=0;" edge="1" parent="1">
                    <mxGeometry width="50" height="50" relative="1" as="geometry">
                        <mxPoint x="-165" y="450" as="sourcePoint"/>
                        <mxPoint x="211" y="337.5" as="targetPoint"/>
                    </mxGeometry>
                </mxCell>
                <mxCell id="6LFA1IaQUByzfYQtSqcc-16" value="" style="endArrow=none;html=1;entryX=0;entryY=0.5;entryDx=0;entryDy=0;" edge="1" parent="1" target="6LFA1IaQUByzfYQtSqcc-12">
                    <mxGeometry width="50" height="50" relative="1" as="geometry">
                        <mxPoint x="-165" y="450" as="sourcePoint"/>
                        <mxPoint x="226" y="352.5" as="targetPoint"/>
                    </mxGeometry>
                </mxCell>
                <mxCell id="6LFA1IaQUByzfYQtSqcc-17" value="" style="endArrow=none;html=1;entryX=0;entryY=0.5;entryDx=0;entryDy=0;" edge="1" parent="1" target="6LFA1IaQUByzfYQtSqcc-13">
                    <mxGeometry width="50" height="50" relative="1" as="geometry">
                        <mxPoint x="-165" y="450" as="sourcePoint"/>
                        <mxPoint x="219" y="409.25" as="targetPoint"/>
                    </mxGeometry>
                </mxCell>
                <mxCell id="6LFA1IaQUByzfYQtSqcc-18" value="" style="endArrow=none;html=1;entryX=0;entryY=0.5;entryDx=0;entryDy=0;" edge="1" parent="1" target="6LFA1IaQUByzfYQtSqcc-14">
                    <mxGeometry width="50" height="50" relative="1" as="geometry">
                        <mxPoint x="-165" y="450" as="sourcePoint"/>
                        <mxPoint x="221.5" y="476" as="targetPoint"/>
                    </mxGeometry>
                </mxCell>
                <mxCell id="6LFA1IaQUByzfYQtSqcc-19" value="gerer une session" style="ellipse;whiteSpace=wrap;html=1;" vertex="1" parent="1">
                    <mxGeometry x="225" y="630" width="150" height="60" as="geometry"/>
                </mxCell>
                <mxCell id="6LFA1IaQUByzfYQtSqcc-20" value="Gérer les formations" style="ellipse;whiteSpace=wrap;html=1;" vertex="1" parent="1">
                    <mxGeometry x="240" y="795" width="150" height="60" as="geometry"/>
                </mxCell>
                <mxCell id="6LFA1IaQUByzfYQtSqcc-21" value="Créer une formation" style="ellipse;whiteSpace=wrap;html=1;" vertex="1" parent="1">
                    <mxGeometry x="59" y="887" width="110" height="45" as="geometry"/>
                </mxCell>
                <mxCell id="6LFA1IaQUByzfYQtSqcc-22" value="Modifier une formation" style="ellipse;whiteSpace=wrap;html=1;" vertex="1" parent="1">
                    <mxGeometry x="195" y="887" width="110" height="45" as="geometry"/>
                </mxCell>
                <mxCell id="6LFA1IaQUByzfYQtSqcc-23" value="Archiver une formation" style="ellipse;whiteSpace=wrap;html=1;" vertex="1" parent="1">
                    <mxGeometry x="315" y="885" width="110" height="45" as="geometry"/>
                </mxCell>
                <mxCell id="6LFA1IaQUByzfYQtSqcc-24" value="Voir les formations" style="ellipse;whiteSpace=wrap;html=1;" vertex="1" parent="1">
                    <mxGeometry x="435" y="885" width="110" height="45" as="geometry"/>
                </mxCell>
                <mxCell id="6LFA1IaQUByzfYQtSqcc-25" value="" style="endArrow=block;dashed=1;endFill=0;endSize=12;html=1;exitX=1;exitY=0;exitDx=0;exitDy=0;entryX=0;entryY=0.5;entryDx=0;entryDy=0;" edge="1" parent="1" source="6LFA1IaQUByzfYQtSqcc-21" target="6LFA1IaQUByzfYQtSqcc-20">
                    <mxGeometry width="160" relative="1" as="geometry">
                        <mxPoint x="225" y="840" as="sourcePoint"/>
                        <mxPoint x="385" y="840" as="targetPoint"/>
                    </mxGeometry>
                </mxCell>
                <mxCell id="6LFA1IaQUByzfYQtSqcc-26" value="gerer les quizz" style="ellipse;whiteSpace=wrap;html=1;" vertex="1" parent="1">
                    <mxGeometry x="225" y="960" width="150" height="60" as="geometry"/>
                </mxCell>
                <mxCell id="6LFA1IaQUByzfYQtSqcc-27" value="" style="endArrow=block;dashed=1;endFill=0;endSize=12;html=1;entryX=1;entryY=1;entryDx=0;entryDy=0;exitX=0.5;exitY=0;exitDx=0;exitDy=0;" edge="1" parent="1" source="6LFA1IaQUByzfYQtSqcc-23" target="6LFA1IaQUByzfYQtSqcc-20">
                    <mxGeometry width="160" relative="1" as="geometry">
                        <mxPoint x="270" y="858" as="sourcePoint"/>
                        <mxPoint x="259" y="903" as="targetPoint"/>
                        <Array as="points"/>
                    </mxGeometry>
                </mxCell>
                <mxCell id="6LFA1IaQUByzfYQtSqcc-28" value="" style="endArrow=block;dashed=1;endFill=0;endSize=12;html=1;entryX=0.97;entryY=0.763;entryDx=0;entryDy=0;exitX=0;exitY=0;exitDx=0;exitDy=0;entryPerimeter=0;" edge="1" parent="1" source="6LFA1IaQUByzfYQtSqcc-24" target="6LFA1IaQUByzfYQtSqcc-20">
                    <mxGeometry width="160" relative="1" as="geometry">
                        <mxPoint x="371.4000000000001" y="867.3" as="sourcePoint"/>
                        <mxPoint x="385" y="900" as="targetPoint"/>
                    </mxGeometry>
                </mxCell>
                <mxCell id="6LFA1IaQUByzfYQtSqcc-29" value="" style="endArrow=block;dashed=1;endFill=0;endSize=12;html=1;exitX=0.5;exitY=0;exitDx=0;exitDy=0;entryX=0;entryY=0.5;entryDx=0;entryDy=0;" edge="1" parent="1" source="6LFA1IaQUByzfYQtSqcc-31" target="6LFA1IaQUByzfYQtSqcc-19">
                    <mxGeometry width="160" relative="1" as="geometry">
                        <mxPoint x="225" y="661" as="sourcePoint"/>
                        <mxPoint x="120" y="735" as="targetPoint"/>
                    </mxGeometry>
                </mxCell>
                <mxCell id="6LFA1IaQUByzfYQtSqcc-30" value="" style="endArrow=block;dashed=1;endFill=0;endSize=12;html=1;exitX=0.5;exitY=0;exitDx=0;exitDy=0;entryX=0;entryY=1;entryDx=0;entryDy=0;" edge="1" parent="1" source="6LFA1IaQUByzfYQtSqcc-32" target="6LFA1IaQUByzfYQtSqcc-19">
                    <mxGeometry width="160" relative="1" as="geometry">
                        <mxPoint x="129" y="740" as="sourcePoint"/>
                        <mxPoint x="240" y="675" as="targetPoint"/>
                    </mxGeometry>
                </mxCell>
                <mxCell id="6LFA1IaQUByzfYQtSqcc-31" value="Créer une session" style="ellipse;whiteSpace=wrap;html=1;" vertex="1" parent="1">
                    <mxGeometry x="59" y="725" width="110" height="45" as="geometry"/>
                </mxCell>
                <mxCell id="6LFA1IaQUByzfYQtSqcc-32" value="modifier une session" style="ellipse;whiteSpace=wrap;html=1;" vertex="1" parent="1">
                    <mxGeometry x="189" y="723" width="110" height="45" as="geometry"/>
                </mxCell>
                <mxCell id="6LFA1IaQUByzfYQtSqcc-33" value="Archiver une session" style="ellipse;whiteSpace=wrap;html=1;" vertex="1" parent="1">
                    <mxGeometry x="315" y="723" width="110" height="45" as="geometry"/>
                </mxCell>
                <mxCell id="6LFA1IaQUByzfYQtSqcc-34" value="Voir les details d'une session" style="ellipse;whiteSpace=wrap;html=1;" vertex="1" parent="1">
                    <mxGeometry x="435" y="723" width="110" height="45" as="geometry"/>
                </mxCell>
                <mxCell id="6LFA1IaQUByzfYQtSqcc-35" value="ajouter des apprenants à la session" style="ellipse;whiteSpace=wrap;html=1;" vertex="1" parent="1">
                    <mxGeometry x="555" y="725" width="110" height="45" as="geometry"/>
                </mxCell>
                <mxCell id="6LFA1IaQUByzfYQtSqcc-36" value="ATA system" style="shape=umlFrame;whiteSpace=wrap;html=1;width=165;height=30;fillStyle=auto;" vertex="1" parent="1">
                    <mxGeometry x="-120" y="-60.75" width="1070" height="1612.5" as="geometry"/>
                </mxCell>
                <mxCell id="6LFA1IaQUByzfYQtSqcc-37" value="" style="endArrow=block;dashed=1;endFill=0;endSize=12;html=1;entryX=0.414;entryY=0.419;entryDx=0;entryDy=0;entryPerimeter=0;" edge="1" parent="1">
                    <mxGeometry width="160" relative="1" as="geometry">
                        <mxPoint x="600" y="725" as="sourcePoint"/>
                        <mxPoint x="375.17999999999984" y="664.9250000000002" as="targetPoint"/>
                    </mxGeometry>
                </mxCell>
                <mxCell id="6LFA1IaQUByzfYQtSqcc-38" value="administrateur" style="shape=umlActor;verticalLabelPosition=bottom;verticalAlign=top;html=1;outlineConnect=0;" vertex="1" parent="1">
                    <mxGeometry x="-225" y="835" width="30" height="60" as="geometry"/>
                </mxCell>
                <mxCell id="6LFA1IaQUByzfYQtSqcc-39" value="Gérer les utilisateurs&lt;br&gt;et ses roles" style="ellipse;whiteSpace=wrap;html=1;" vertex="1" parent="1">
                    <mxGeometry x="255" y="1230" width="140" height="70" as="geometry"/>
                </mxCell>
                <mxCell id="6LFA1IaQUByzfYQtSqcc-40" value="Accepter les avis des utilisateurs" style="ellipse;whiteSpace=wrap;html=1;" vertex="1" parent="1">
                    <mxGeometry x="256" y="1320" width="140" height="70" as="geometry"/>
                </mxCell>
                <mxCell id="6LFA1IaQUByzfYQtSqcc-41" value="" style="endArrow=block;dashed=1;endFill=0;endSize=12;html=1;entryX=0;entryY=1;entryDx=0;entryDy=0;exitX=0.5;exitY=0;exitDx=0;exitDy=0;" edge="1" parent="1" source="6LFA1IaQUByzfYQtSqcc-22" target="6LFA1IaQUByzfYQtSqcc-20">
                    <mxGeometry width="160" relative="1" as="geometry">
                        <mxPoint x="345.67463320428783" y="906.7698532817151" as="sourcePoint"/>
                        <mxPoint x="383.6836461282935" y="860.9497155622607" as="targetPoint"/>
                        <Array as="points"/>
                    </mxGeometry>
                </mxCell>
                <mxCell id="6LFA1IaQUByzfYQtSqcc-42" value="Créer un quizz" style="ellipse;whiteSpace=wrap;html=1;container=0;" vertex="1" parent="1">
                    <mxGeometry x="30" y="1052" width="110" height="45" as="geometry"/>
                </mxCell>
                <mxCell id="6LFA1IaQUByzfYQtSqcc-43" value="" style="endArrow=block;dashed=1;endFill=0;endSize=12;html=1;entryX=0;entryY=0.5;entryDx=0;entryDy=0;" edge="1" parent="1" source="6LFA1IaQUByzfYQtSqcc-42" target="6LFA1IaQUByzfYQtSqcc-26">
                    <mxGeometry width="160" relative="1" as="geometry">
                        <mxPoint x="168.32536679571558" y="908.7698532817137" as="sourcePoint"/>
                        <mxPoint x="255" y="840" as="targetPoint"/>
                    </mxGeometry>
                </mxCell>
                <mxCell id="6LFA1IaQUByzfYQtSqcc-44" value="modifier un quiz" style="ellipse;whiteSpace=wrap;html=1;container=0;" vertex="1" parent="1">
                    <mxGeometry x="160" y="1050" width="110" height="45" as="geometry"/>
                </mxCell>
                <mxCell id="6LFA1IaQUByzfYQtSqcc-45" value="" style="endArrow=block;dashed=1;endFill=0;endSize=12;html=1;entryX=0;entryY=0.5;entryDx=0;entryDy=0;exitX=0.5;exitY=0;exitDx=0;exitDy=0;" edge="1" parent="1" source="6LFA1IaQUByzfYQtSqcc-44">
                    <mxGeometry width="160" relative="1" as="geometry">
                        <mxPoint x="131.07529585873817" y="1070.9355375389357" as="sourcePoint"/>
                        <mxPoint x="240" y="1005" as="targetPoint"/>
                    </mxGeometry>
                </mxCell>
                <mxCell id="6LFA1IaQUByzfYQtSqcc-46" value="Supprimer un quizz" style="ellipse;whiteSpace=wrap;html=1;container=0;" vertex="1" parent="1">
                    <mxGeometry x="286" y="1050" width="110" height="45" as="geometry"/>
                </mxCell>
                <mxCell id="6LFA1IaQUByzfYQtSqcc-47" value="" style="endArrow=block;dashed=1;endFill=0;endSize=12;html=1;entryX=0.706;entryY=1.01;entryDx=0;entryDy=0;exitX=0.5;exitY=0;exitDx=0;exitDy=0;entryPerimeter=0;" edge="1" parent="1" source="6LFA1IaQUByzfYQtSqcc-46" target="6LFA1IaQUByzfYQtSqcc-26">
                    <mxGeometry width="160" relative="1" as="geometry">
                        <mxPoint x="230" y="1065" as="sourcePoint"/>
                        <mxPoint x="255" y="1020" as="targetPoint"/>
                    </mxGeometry>
                </mxCell>
                <mxCell id="6LFA1IaQUByzfYQtSqcc-48" value="Voir les details d'un quizz" style="ellipse;whiteSpace=wrap;html=1;container=0;" vertex="1" parent="1">
                    <mxGeometry x="406" y="1050" width="110" height="45" as="geometry"/>
                </mxCell>
                <mxCell id="6LFA1IaQUByzfYQtSqcc-49" value="" style="endArrow=block;dashed=1;endFill=0;endSize=12;html=1;entryX=0.975;entryY=0.758;entryDx=0;entryDy=0;exitX=0.5;exitY=0;exitDx=0;exitDy=0;entryPerimeter=0;" edge="1" parent="1" source="6LFA1IaQUByzfYQtSqcc-48" target="6LFA1IaQUByzfYQtSqcc-26">
                    <mxGeometry width="160" relative="1" as="geometry">
                        <mxPoint x="356" y="1065" as="sourcePoint"/>
                        <mxPoint x="345.9000000000001" y="1035.6000000000001" as="targetPoint"/>
                    </mxGeometry>
                </mxCell>
                <mxCell id="6LFA1IaQUByzfYQtSqcc-50" value="" style="endArrow=none;html=1;entryX=0;entryY=0.5;entryDx=0;entryDy=0;" edge="1" parent="1" target="6LFA1IaQUByzfYQtSqcc-39">
                    <mxGeometry width="50" height="50" relative="1" as="geometry">
                        <mxPoint x="-150" y="855" as="sourcePoint"/>
                        <mxPoint x="240.00000000000023" y="1157" as="targetPoint"/>
                        <Array as="points">
                            <mxPoint x="-120" y="1260"/>
                        </Array>
                    </mxGeometry>
                </mxCell>
                <mxCell id="6LFA1IaQUByzfYQtSqcc-51" value="" style="endArrow=none;html=1;entryX=0;entryY=0.5;entryDx=0;entryDy=0;" edge="1" parent="1" target="6LFA1IaQUByzfYQtSqcc-40">
                    <mxGeometry width="50" height="50" relative="1" as="geometry">
                        <mxPoint x="-150" y="855" as="sourcePoint"/>
                        <mxPoint x="265.0000000000002" y="1265" as="targetPoint"/>
                        <Array as="points">
                            <mxPoint x="-120" y="1355"/>
                        </Array>
                    </mxGeometry>
                </mxCell>
                <mxCell id="6LFA1IaQUByzfYQtSqcc-52" value="&amp;lt;&amp;lt;extends&amp;gt;&amp;gt;" style="text;html=1;align=center;verticalAlign=middle;resizable=0;points=[];autosize=1;strokeColor=none;fillColor=none;rotation=30;" vertex="1" parent="1">
                    <mxGeometry x="378.5" y="1012" width="105" height="30" as="geometry"/>
                </mxCell>
                <mxCell id="6LFA1IaQUByzfYQtSqcc-53" value="&amp;lt;&amp;lt;extends&amp;gt;&amp;gt;" style="text;html=1;align=center;verticalAlign=middle;resizable=0;points=[];autosize=1;strokeColor=none;fillColor=none;rotation=15;" vertex="1" parent="1">
                    <mxGeometry x="450" y="660" width="105" height="30" as="geometry"/>
                </mxCell>
                <mxCell id="6LFA1IaQUByzfYQtSqcc-54" value="" style="endArrow=block;dashed=1;endFill=0;endSize=12;html=1;exitX=0.5;exitY=0;exitDx=0;exitDy=0;entryX=1;entryY=1;entryDx=0;entryDy=0;" edge="1" parent="1" source="6LFA1IaQUByzfYQtSqcc-33" target="6LFA1IaQUByzfYQtSqcc-19">
                    <mxGeometry width="160" relative="1" as="geometry">
                        <mxPoint x="259" y="738.0000000000002" as="sourcePoint"/>
                        <mxPoint x="261.5637161722477" y="696.0506572654783" as="targetPoint"/>
                    </mxGeometry>
                </mxCell>
                <mxCell id="6LFA1IaQUByzfYQtSqcc-55" value="" style="endArrow=block;dashed=1;endFill=0;endSize=12;html=1;exitX=0.5;exitY=0;exitDx=0;exitDy=0;entryX=0.984;entryY=0.761;entryDx=0;entryDy=0;entryPerimeter=0;" edge="1" parent="1" source="6LFA1IaQUByzfYQtSqcc-34" target="6LFA1IaQUByzfYQtSqcc-19">
                    <mxGeometry width="160" relative="1" as="geometry">
                        <mxPoint x="385" y="738.0000000000002" as="sourcePoint"/>
                        <mxPoint x="368.4362838277525" y="696.0506572654783" as="targetPoint"/>
                    </mxGeometry>
                </mxCell>
                <mxCell id="6LFA1IaQUByzfYQtSqcc-56" value="gerer les types de formations" style="ellipse;whiteSpace=wrap;html=1;" vertex="1" parent="1">
                    <mxGeometry x="250" y="1097" width="140" height="70" as="geometry"/>
                </mxCell>
                <mxCell id="6LFA1IaQUByzfYQtSqcc-57" value="" style="endArrow=none;html=1;entryX=0;entryY=0.5;entryDx=0;entryDy=0;" edge="1" parent="1" target="6LFA1IaQUByzfYQtSqcc-20">
                    <mxGeometry width="50" height="50" relative="1" as="geometry">
                        <mxPoint x="-150" y="855" as="sourcePoint"/>
                        <mxPoint x="270" y="1279.9999999999998" as="targetPoint"/>
                        <Array as="points">
                            <mxPoint x="-30" y="825"/>
                        </Array>
                    </mxGeometry>
                </mxCell>
                <mxCell id="6LFA1IaQUByzfYQtSqcc-58" value="Voir les statistiques" style="ellipse;whiteSpace=wrap;html=1;" vertex="1" parent="1">
                    <mxGeometry x="256" y="1173" width="140" height="52" as="geometry"/>
                </mxCell>
                <mxCell id="6LFA1IaQUByzfYQtSqcc-59" value="" style="endArrow=none;html=1;entryX=0;entryY=0.5;entryDx=0;entryDy=0;" edge="1" parent="1" target="6LFA1IaQUByzfYQtSqcc-58">
                    <mxGeometry width="50" height="50" relative="1" as="geometry">
                        <mxPoint x="-150" y="855" as="sourcePoint"/>
                        <mxPoint x="265" y="1146.9999999999998" as="targetPoint"/>
                        <Array as="points">
                            <mxPoint x="-105" y="1199"/>
                        </Array>
                    </mxGeometry>
                </mxCell>
                <mxCell id="6LFA1IaQUByzfYQtSqcc-60" value="" style="endArrow=open;endFill=1;endSize=12;html=1;" edge="1" parent="1">
                    <mxGeometry width="160" relative="1" as="geometry">
                        <mxPoint x="-225" y="368" as="sourcePoint"/>
                        <mxPoint x="-225" y="143" as="targetPoint"/>
                    </mxGeometry>
                </mxCell>
                <mxCell id="6LFA1IaQUByzfYQtSqcc-61" value="Login&amp;nbsp;" style="ellipse;whiteSpace=wrap;html=1;fillStyle=auto;" vertex="1" parent="1">
                    <mxGeometry x="615" y="390" width="140" height="70" as="geometry"/>
                </mxCell>
                <mxCell id="6LFA1IaQUByzfYQtSqcc-62" value="" style="endArrow=block;dashed=1;endFill=0;endSize=12;html=1;entryX=0;entryY=0.5;entryDx=0;entryDy=0;exitX=1;exitY=0.5;exitDx=0;exitDy=0;" edge="1" parent="1" source="6LFA1IaQUByzfYQtSqcc-11" target="6LFA1IaQUByzfYQtSqcc-61">
                    <mxGeometry width="160" relative="1" as="geometry">
                        <mxPoint x="615" y="740" as="sourcePoint"/>
                        <mxPoint x="390.17999999999984" y="679.9250000000002" as="targetPoint"/>
                    </mxGeometry>
                </mxCell>
                <mxCell id="6LFA1IaQUByzfYQtSqcc-63" value="" style="endArrow=block;dashed=1;endFill=0;endSize=12;html=1;" edge="1" parent="1">
                    <mxGeometry width="160" relative="1" as="geometry">
                        <mxPoint x="345" y="405" as="sourcePoint"/>
                        <mxPoint x="615" y="420" as="targetPoint"/>
                    </mxGeometry>
                </mxCell>
                <mxCell id="6LFA1IaQUByzfYQtSqcc-64" value="" style="endArrow=block;dashed=1;endFill=0;endSize=12;html=1;" edge="1" parent="1">
                    <mxGeometry width="160" relative="1" as="geometry">
                        <mxPoint x="353" y="465" as="sourcePoint"/>
                        <mxPoint x="615" y="435" as="targetPoint"/>
                    </mxGeometry>
                </mxCell>
                <mxCell id="6LFA1IaQUByzfYQtSqcc-65" value="" style="endArrow=block;dashed=1;endFill=0;endSize=12;html=1;" edge="1" parent="1">
                    <mxGeometry width="160" relative="1" as="geometry">
                        <mxPoint x="360" y="525" as="sourcePoint"/>
                        <mxPoint x="630" y="450" as="targetPoint"/>
                    </mxGeometry>
                </mxCell>
                <mxCell id="6LFA1IaQUByzfYQtSqcc-66" value="" style="endArrow=block;dashed=1;endFill=0;endSize=12;html=1;entryX=0.195;entryY=0.901;entryDx=0;entryDy=0;entryPerimeter=0;" edge="1" parent="1" target="6LFA1IaQUByzfYQtSqcc-61">
                    <mxGeometry width="160" relative="1" as="geometry">
                        <mxPoint x="365" y="645" as="sourcePoint"/>
                        <mxPoint x="650" y="465" as="targetPoint"/>
                    </mxGeometry>
                </mxCell>
                <mxCell id="6LFA1IaQUByzfYQtSqcc-67" value="Login&amp;nbsp;" style="ellipse;whiteSpace=wrap;html=1;fillStyle=auto;" vertex="1" parent="1">
                    <mxGeometry x="690" y="1225" width="140" height="70" as="geometry"/>
                </mxCell>
                <mxCell id="6LFA1IaQUByzfYQtSqcc-68" value="" style="endArrow=block;dashed=1;endFill=0;endSize=12;html=1;entryX=0;entryY=0.5;entryDx=0;entryDy=0;" edge="1" parent="1" target="6LFA1IaQUByzfYQtSqcc-67">
                    <mxGeometry width="160" relative="1" as="geometry">
                        <mxPoint x="380" y="1331.9299999999998" as="sourcePoint"/>
                        <mxPoint x="657.3" y="1140" as="targetPoint"/>
                    </mxGeometry>
                </mxCell>
                <mxCell id="6LFA1IaQUByzfYQtSqcc-69" value="" style="endArrow=block;dashed=1;endFill=0;endSize=12;html=1;exitX=1;exitY=0.5;exitDx=0;exitDy=0;" edge="1" parent="1" source="6LFA1IaQUByzfYQtSqcc-39">
                    <mxGeometry width="160" relative="1" as="geometry">
                        <mxPoint x="395" y="1346.9299999999998" as="sourcePoint"/>
                        <mxPoint x="690" y="1260" as="targetPoint"/>
                    </mxGeometry>
                </mxCell>
                <mxCell id="6LFA1IaQUByzfYQtSqcc-70" value="" style="endArrow=block;dashed=1;endFill=0;endSize=12;html=1;exitX=1;exitY=0.5;exitDx=0;exitDy=0;entryX=0.011;entryY=0.272;entryDx=0;entryDy=0;entryPerimeter=0;" edge="1" parent="1" source="6LFA1IaQUByzfYQtSqcc-58" target="6LFA1IaQUByzfYQtSqcc-67">
                    <mxGeometry width="160" relative="1" as="geometry">
                        <mxPoint x="410" y="1280" as="sourcePoint"/>
                        <mxPoint x="705" y="1275" as="targetPoint"/>
                    </mxGeometry>
                </mxCell>
                <mxCell id="6LFA1IaQUByzfYQtSqcc-71" value="" style="endArrow=block;dashed=1;endFill=0;endSize=12;html=1;exitX=1;exitY=0.5;exitDx=0;exitDy=0;entryX=0;entryY=0;entryDx=0;entryDy=0;" edge="1" parent="1" source="6LFA1IaQUByzfYQtSqcc-56" target="6LFA1IaQUByzfYQtSqcc-67">
                    <mxGeometry width="160" relative="1" as="geometry">
                        <mxPoint x="411" y="1214" as="sourcePoint"/>
                        <mxPoint x="706.54" y="1259.04" as="targetPoint"/>
                    </mxGeometry>
                </mxCell>
                <mxCell id="6LFA1IaQUByzfYQtSqcc-72" value="" style="endArrow=block;dashed=1;endFill=0;endSize=12;html=1;exitX=1;exitY=0.5;exitDx=0;exitDy=0;entryX=0.967;entryY=0.31;entryDx=0;entryDy=0;entryPerimeter=0;" edge="1" parent="1" source="6LFA1IaQUByzfYQtSqcc-20" target="6LFA1IaQUByzfYQtSqcc-67">
                    <mxGeometry width="160" relative="1" as="geometry">
                        <mxPoint x="405" y="1147" as="sourcePoint"/>
                        <mxPoint x="725.502525316942" y="1250.2512626584708" as="targetPoint"/>
                        <Array as="points">
                            <mxPoint x="825" y="825"/>
                        </Array>
                    </mxGeometry>
                </mxCell>
                <mxCell id="6LFA1IaQUByzfYQtSqcc-73" value="" style="endArrow=block;dashed=1;endFill=0;endSize=12;html=1;exitX=1;exitY=0.5;exitDx=0;exitDy=0;entryX=0.784;entryY=0.06;entryDx=0;entryDy=0;entryPerimeter=0;" edge="1" parent="1" target="6LFA1IaQUByzfYQtSqcc-67">
                    <mxGeometry width="160" relative="1" as="geometry">
                        <mxPoint x="366" y="975" as="sourcePoint"/>
                        <mxPoint x="806" y="1230" as="targetPoint"/>
                        <Array as="points">
                            <mxPoint x="801" y="975"/>
                        </Array>
                    </mxGeometry>
                </mxCell>
                <mxCell id="6LFA1IaQUByzfYQtSqcc-74" value="&amp;lt;&amp;lt;includes&amp;gt;&amp;gt;" style="text;html=1;align=center;verticalAlign=middle;resizable=0;points=[];autosize=1;strokeColor=none;fillColor=none;rotation=0;" vertex="1" parent="1">
                    <mxGeometry x="555" y="795" width="105" height="30" as="geometry"/>
                </mxCell>
                <mxCell id="6LFA1IaQUByzfYQtSqcc-75" value="&amp;lt;&amp;lt;includes&amp;gt;&amp;gt;" style="text;html=1;align=center;verticalAlign=middle;resizable=0;points=[];autosize=1;strokeColor=none;fillColor=none;rotation=0;" vertex="1" parent="1">
                    <mxGeometry x="560" y="945" width="105" height="30" as="geometry"/>
                </mxCell>
                <mxCell id="6LFA1IaQUByzfYQtSqcc-76" value="&amp;lt;&amp;lt;includes&amp;gt;&amp;gt;" style="text;html=1;align=center;verticalAlign=middle;resizable=0;points=[];autosize=1;strokeColor=none;fillColor=none;rotation=20;" vertex="1" parent="1">
                    <mxGeometry x="545" y="1163" width="105" height="30" as="geometry"/>
                </mxCell>
                <mxCell id="6LFA1IaQUByzfYQtSqcc-77" value="&amp;lt;&amp;lt;includes&amp;gt;&amp;gt;" style="text;html=1;align=center;verticalAlign=middle;resizable=0;points=[];autosize=1;strokeColor=none;fillColor=none;rotation=15;" vertex="1" parent="1">
                    <mxGeometry x="525" y="1201" width="105" height="30" as="geometry"/>
                </mxCell>
                <mxCell id="6LFA1IaQUByzfYQtSqcc-78" value="&amp;lt;&amp;lt;includes&amp;gt;&amp;gt;" style="text;html=1;align=center;verticalAlign=middle;resizable=0;points=[];autosize=1;strokeColor=none;fillColor=none;rotation=0;" vertex="1" parent="1">
                    <mxGeometry x="495" y="1235" width="105" height="30" as="geometry"/>
                </mxCell>
                <mxCell id="6LFA1IaQUByzfYQtSqcc-79" value="&amp;lt;&amp;lt;includes&amp;gt;&amp;gt;" style="text;html=1;align=center;verticalAlign=middle;resizable=0;points=[];autosize=1;strokeColor=none;fillColor=none;rotation=-10;" vertex="1" parent="1">
                    <mxGeometry x="477" y="1272" width="105" height="30" as="geometry"/>
                </mxCell>
                <mxCell id="6LFA1IaQUByzfYQtSqcc-80" value="&amp;lt;&amp;lt;includes&amp;gt;&amp;gt;" style="text;html=1;align=center;verticalAlign=middle;resizable=0;points=[];autosize=1;strokeColor=none;fillColor=none;rotation=20;" vertex="1" parent="1">
                    <mxGeometry x="380" y="330" width="105" height="30" as="geometry"/>
                </mxCell>
                <mxCell id="6LFA1IaQUByzfYQtSqcc-81" value="&amp;lt;&amp;lt;includes&amp;gt;&amp;gt;" style="text;html=1;align=center;verticalAlign=middle;resizable=0;points=[];autosize=1;strokeColor=none;fillColor=none;rotation=5;" vertex="1" parent="1">
                    <mxGeometry x="390" y="379.25" width="105" height="30" as="geometry"/>
                </mxCell>
                <mxCell id="6LFA1IaQUByzfYQtSqcc-82" value="&amp;lt;&amp;lt;includes&amp;gt;&amp;gt;" style="text;html=1;align=center;verticalAlign=middle;resizable=0;points=[];autosize=1;strokeColor=none;fillColor=none;rotation=-5;" vertex="1" parent="1">
                    <mxGeometry x="395" y="431" width="105" height="30" as="geometry"/>
                </mxCell>
                <mxCell id="6LFA1IaQUByzfYQtSqcc-83" value="&amp;lt;&amp;lt;includes&amp;gt;&amp;gt;" style="text;html=1;align=center;verticalAlign=middle;resizable=0;points=[];autosize=1;strokeColor=none;fillColor=none;rotation=-15;" vertex="1" parent="1">
                    <mxGeometry x="408.5" y="469" width="105" height="30" as="geometry"/>
                </mxCell>
                <mxCell id="6LFA1IaQUByzfYQtSqcc-84" value="&amp;lt;&amp;lt;includes&amp;gt;&amp;gt;" style="text;html=1;align=center;verticalAlign=middle;resizable=0;points=[];autosize=1;strokeColor=none;fillColor=none;rotation=-35;" vertex="1" parent="1">
                    <mxGeometry x="425" y="540" width="105" height="30" as="geometry"/>
                </mxCell>
                <mxCell id="6LFA1IaQUByzfYQtSqcc-85" value="&amp;lt;&amp;lt;extends&amp;gt;&amp;gt;" style="text;html=1;align=center;verticalAlign=middle;resizable=0;points=[];autosize=1;strokeColor=none;fillColor=none;rotation=15;" vertex="1" parent="1">
                    <mxGeometry x="425" y="690" width="105" height="30" as="geometry"/>
                </mxCell>
                <mxCell id="6LFA1IaQUByzfYQtSqcc-86" value="&amp;lt;&amp;lt;extends&amp;gt;&amp;gt;" style="text;html=1;align=center;verticalAlign=middle;resizable=0;points=[];autosize=1;strokeColor=none;fillColor=none;rotation=-30;" vertex="1" parent="1">
                    <mxGeometry x="106" y="675" width="105" height="30" as="geometry"/>
                </mxCell>
                <mxCell id="6LFA1IaQUByzfYQtSqcc-87" value="&amp;lt;&amp;lt;extends&amp;gt;&amp;gt;" style="text;html=1;align=center;verticalAlign=middle;resizable=0;points=[];autosize=1;strokeColor=none;fillColor=none;rotation=-40;" vertex="1" parent="1">
                    <mxGeometry x="124" y="850" width="105" height="30" as="geometry"/>
                </mxCell>
                <mxCell id="6LFA1IaQUByzfYQtSqcc-88" value="&lt;font style=&quot;font-size: 9px;&quot;&gt;&amp;lt;&amp;lt;extends&amp;gt;&amp;gt;&lt;/font&gt;" style="text;html=1;align=center;verticalAlign=middle;resizable=0;points=[];autosize=1;strokeColor=none;fillColor=none;rotation=40;" vertex="1" parent="1">
                    <mxGeometry x="391" y="850" width="90" height="30" as="geometry"/>
                </mxCell>
                <mxCell id="6LFA1IaQUByzfYQtSqcc-89" value="&amp;lt;&amp;lt;extends&amp;gt;&amp;gt;" style="text;html=1;align=center;verticalAlign=middle;resizable=0;points=[];autosize=1;strokeColor=none;fillColor=none;rotation=-30;" vertex="1" parent="1">
                    <mxGeometry x="101.5" y="1005" width="105" height="30" as="geometry"/>
                </mxCell>
                <mxCell id="6LFA1IaQUByzfYQtSqcc-90" value="" style="endArrow=none;html=1;" edge="1" parent="1">
                    <mxGeometry width="50" height="50" relative="1" as="geometry">
                        <mxPoint x="-150" y="855" as="sourcePoint"/>
                        <mxPoint x="225" y="990" as="targetPoint"/>
                    </mxGeometry>
                </mxCell>
                <mxCell id="6LFA1IaQUByzfYQtSqcc-91" value="Soumetter le quizz" style="ellipse;whiteSpace=wrap;html=1;" vertex="1" parent="1">
                    <mxGeometry x="211" y="559" width="150" height="45" as="geometry"/>
                </mxCell>
                <mxCell id="6LFA1IaQUByzfYQtSqcc-92" value="" style="endArrow=none;html=1;entryX=0;entryY=0.5;entryDx=0;entryDy=0;" edge="1" parent="1" target="6LFA1IaQUByzfYQtSqcc-91">
                    <mxGeometry width="50" height="50" relative="1" as="geometry">
                        <mxPoint x="-165" y="450" as="sourcePoint"/>
                        <mxPoint x="226" y="536" as="targetPoint"/>
                    </mxGeometry>
                </mxCell>
                <mxCell id="6LFA1IaQUByzfYQtSqcc-93" value="" style="endArrow=block;dashed=1;endFill=0;endSize=12;html=1;exitX=1;exitY=0.5;exitDx=0;exitDy=0;" edge="1" parent="1" source="6LFA1IaQUByzfYQtSqcc-91">
                    <mxGeometry width="160" relative="1" as="geometry">
                        <mxPoint x="375" y="540" as="sourcePoint"/>
                        <mxPoint x="630" y="450" as="targetPoint"/>
                    </mxGeometry>
                </mxCell>
                <mxCell id="6LFA1IaQUByzfYQtSqcc-94" value="&amp;lt;&amp;lt;includes&amp;gt;&amp;gt;" style="text;html=1;align=center;verticalAlign=middle;resizable=0;points=[];autosize=1;strokeColor=none;fillColor=none;rotation=-25;" vertex="1" parent="1">
                    <mxGeometry x="375" y="521" width="105" height="30" as="geometry"/>
                </mxCell>
                <mxCell id="6LFA1IaQUByzfYQtSqcc-95" value="ajouter des formateurs à la sessions" style="ellipse;whiteSpace=wrap;html=1;" vertex="1" parent="1">
                    <mxGeometry x="615" y="652.5" width="110" height="45" as="geometry"/>
                </mxCell>
                <mxCell id="6LFA1IaQUByzfYQtSqcc-96" value="" style="endArrow=block;dashed=1;endFill=0;endSize=12;html=1;entryX=1;entryY=0.5;entryDx=0;entryDy=0;exitX=-0.025;exitY=0.243;exitDx=0;exitDy=0;exitPerimeter=0;" edge="1" parent="1" source="6LFA1IaQUByzfYQtSqcc-95" target="6LFA1IaQUByzfYQtSqcc-19">
                    <mxGeometry width="160" relative="1" as="geometry">
                        <mxPoint x="615" y="740" as="sourcePoint"/>
                        <mxPoint x="390.1799999999996" y="679.9250000000002" as="targetPoint"/>
                    </mxGeometry>
                </mxCell>
                <mxCell id="6LFA1IaQUByzfYQtSqcc-97" value="&amp;lt;&amp;lt;extends&amp;gt;&amp;gt;" style="text;html=1;align=center;verticalAlign=middle;resizable=0;points=[];autosize=1;strokeColor=none;fillColor=none;rotation=0;" vertex="1" parent="1">
                    <mxGeometry x="465" y="634" width="105" height="30" as="geometry"/>
                </mxCell>
                <mxCell id="6LFA1IaQUByzfYQtSqcc-98" value="" style="endArrow=none;html=1;entryX=0;entryY=0.5;entryDx=0;entryDy=0;" edge="1" parent="1" target="6LFA1IaQUByzfYQtSqcc-19">
                    <mxGeometry width="50" height="50" relative="1" as="geometry">
                        <mxPoint x="-150" y="854.25" as="sourcePoint"/>
                        <mxPoint x="211" y="636.75" as="targetPoint"/>
                        <Array as="points">
                            <mxPoint x="-30" y="660"/>
                        </Array>
                    </mxGeometry>
                </mxCell>
                <mxCell id="6LFA1IaQUByzfYQtSqcc-99" value="" style="endArrow=none;html=1;entryX=0;entryY=0.5;entryDx=0;entryDy=0;" edge="1" parent="1" target="6LFA1IaQUByzfYQtSqcc-56">
                    <mxGeometry width="50" height="50" relative="1" as="geometry">
                        <mxPoint x="-150" y="855" as="sourcePoint"/>
                        <mxPoint x="240" y="1005" as="targetPoint"/>
                        <Array as="points">
                            <mxPoint x="-75" y="1132"/>
                        </Array>
                    </mxGeometry>
                </mxCell>
                <mxCell id="6LFA1IaQUByzfYQtSqcc-100" value="" style="endArrow=open;endFill=1;endSize=12;html=1;" edge="1" parent="1">
                    <mxGeometry width="160" relative="1" as="geometry">
                        <mxPoint x="-262" y="870" as="sourcePoint"/>
                        <mxPoint x="-262" y="135" as="targetPoint"/>
                    </mxGeometry>
                </mxCell>
            </root>
        </mxGraphModel>
    </diagram>
</mxfile>